<svg id="Layer_1" data-name="Layer 1" xmlns="http://www.w3.org/2000/svg" viewBox="0 0 24 24"><defs><style>.cls-1{fill:#51ff00;}</style></defs><path class="cls-1" d="M20.23,8.23C20.23,12.78,12,24,12,24S3.77,12.78,3.77,8.23a8.23,8.23,0,0,1,16.46,0Z"/><path d="M16,5.78A2.52,2.52,0,0,1,15.5,6c-.26,0-.27,0-.31.3a4.41,4.41,0,0,0,0,.52c0,.25,0,.51,0,.76a1.2,1.2,0,0,1-.32.67,1.12,1.12,0,0,0-.28.65,1.44,1.44,0,0,1-.14.49.94.94,0,0,0-.06.64c.14.56.25,1.14.41,1.69a12,12,0,0,0,.47,1.26,1.89,1.89,0,0,0,.26.39,1,1,0,0,1,.17.45h-.3s-.07,0-.09-.06L15,13.27a.93.93,0,0,1-.1-.2,10.83,10.83,0,0,0-1-2.18,2.22,2.22,0,0,0-.17-.24,2.83,2.83,0,0,1-.07.28,5.94,5.94,0,0,0-.17.7c0,.42,0,.84,0,1.26a1.18,1.18,0,0,0,.14.51,3.85,3.85,0,0,1,.13.37h-.36s0,0-.06-.07l-.16-.45a1.34,1.34,0,0,1,0-.35c0-.51,0-1,0-1.55a6.17,6.17,0,0,0-.15-.84c0-.18,0-.37,0-.54l-.51-.1a.61.61,0,0,1-.21-.11.34.34,0,0,0-.17,0,3.29,3.29,0,0,1-1.21-.09.48.48,0,0,0-.55.24c-.23.36-.47.71-.72,1.07a.58.58,0,0,0-.07.57,9.14,9.14,0,0,0,1,1.84,4.1,4.1,0,0,1,.23.4l0,0h-.31s-.06,0-.09-.07l-.28-.42c-.05-.08-.11-.14-.15-.22-.3-.54-.58-1.09-.9-1.61a.47.47,0,0,1-.06-.54,2.35,2.35,0,0,0,.17-.51l0,0-.06,0a3.44,3.44,0,0,1-.41.35,1,1,0,0,0-.44.77c-.06.41-.13.83-.16,1.25a3.07,3.07,0,0,0,.07.6c0,.12.06.23.09.35h0c-.11,0-.25,0-.33,0s0-.19-.09-.28a1.89,1.89,0,0,1,0-1.08,3.77,3.77,0,0,0,0-1.38.38.38,0,0,1,.15-.43,1.81,1.81,0,0,0,.68-1.06.3.3,0,0,0,0-.2C8.2,9.14,8.07,9,8,8.77a1.12,1.12,0,0,1-.75.94l.1-.13a1.18,1.18,0,0,0,.2-1,1.67,1.67,0,0,1,1.4-2,4.51,4.51,0,0,1,1.42,0c.47,0,.94.11,1.41.12a7.63,7.63,0,0,0,.95-.09H13A.94.94,0,0,0,14,6a1.6,1.6,0,0,0,.11-.48c0-.16,0-.33,0-.5a.64.64,0,0,1-.57-.25,1.14,1.14,0,0,1-.21-.6.65.65,0,0,1,.49.14,3.22,3.22,0,0,1,.28.24c.14.13.14.13.28,0A.88.88,0,0,0,14,4.17c-.43-.23-.88-.44-1.31-.66a1.83,1.83,0,0,1-1-1.17.41.41,0,0,1,0-.1L12,2.4a1.74,1.74,0,0,1,.15.13c.16.14.25.11.31-.1a3,3,0,0,1,.16-.37.26.26,0,0,1,.25-.12,2.82,2.82,0,0,0-.09.57,1.53,1.53,0,0,0,.08.52.25.25,0,0,0,.19.14s.12-.08.16-.14.17-.3.27-.44a1.08,1.08,0,0,1,.26-.18,4.84,4.84,0,0,0-.16.56.72.72,0,0,0,.33.8,7.16,7.16,0,0,1,.61.48c.09.09.16.16.3.13h0c.24,0,.24,0,.32-.22A1,1,0,0,0,15,3.05a1.64,1.64,0,0,0-.31-.26.45.45,0,0,1,.42,0,3.15,3.15,0,0,1,.29.22l.09.08s.12,0,.16,0a.17.17,0,0,0,0-.14,3.86,3.86,0,0,0-.16-.48,2.53,2.53,0,0,0-.19-.36.34.34,0,0,1,.33.15c.06.1.1.21.15.31l.09.11A.57.57,0,0,0,16,2.62L16,2.43h0a1.6,1.6,0,0,1,.05.21A1.31,1.31,0,0,1,15.69,4a3.62,3.62,0,0,0-.36.42c-.09.1-.08.19.05.27s.13-.11.19-.18a1,1,0,0,1,.54-.29c.11,0,.14,0,.13.13a.68.68,0,0,1-.58.65h-.12l.12.08a2.7,2.7,0,0,1,.4.25A.27.27,0,0,1,16,5.78Z"/></svg>