<svg id="Layer_1" data-name="Layer 1" xmlns="http://www.w3.org/2000/svg" viewBox="0 0 24 24"><defs><style>.cls-1{fill:#51ff00;}</style></defs><path class="cls-1" d="M20.23,8.23C20.23,12.78,12,24,12,24S3.77,12.78,3.77,8.23a8.23,8.23,0,0,1,16.46,0Z"/><path d="M18.3,8.86h0a1.28,1.28,0,0,0-1.11-.65h0a1.28,1.28,0,0,0-1.11.65h0a1.27,1.27,0,0,0,0,1.28h0a1.27,1.27,0,0,0,1.11.64h0a1.27,1.27,0,0,0,1.11-.64h0A1.27,1.27,0,0,0,18.3,8.86Z"/><path d="M14.84,8.86a1.29,1.29,0,0,0-1.11-.65h0a1.27,1.27,0,0,0-1.11.65h0a1.27,1.27,0,0,0,0,1.28h0a1.26,1.26,0,0,0,1.11.64h0a1.28,1.28,0,0,0,1.11-.64h0a1.27,1.27,0,0,0,0-1.28Z"/><path d="M11.37,8.86a1.28,1.28,0,0,0-1.11-.65h0a1.28,1.28,0,0,0-1.11.65h0a1.27,1.27,0,0,0,0,1.28h0a1.27,1.27,0,0,0,1.11.64h0a1.27,1.27,0,0,0,1.11-.64h0a1.27,1.27,0,0,0,0-1.28Z"/><path d="M10.88,7.36A1.27,1.27,0,0,0,12,8h0a1.26,1.26,0,0,0,1.11-.64h0a1.27,1.27,0,0,0,0-1.28h0A1.26,1.26,0,0,0,12,5.44h0a1.27,1.27,0,0,0-1.11.64h0a1.27,1.27,0,0,0,0,1.28Z"/><path d="M14.35,7.36A1.27,1.27,0,0,0,15.46,8h0a1.27,1.27,0,0,0,1.11-.64h0a1.27,1.27,0,0,0,0-1.28h0a1.27,1.27,0,0,0-1.11-.64h0a1.27,1.27,0,0,0-1.11.64h0a1.27,1.27,0,0,0,0,1.28Z"/><path d="M7.42,7.36A1.27,1.27,0,0,0,8.53,8h0a1.27,1.27,0,0,0,1.11-.64h0a1.27,1.27,0,0,0,0-1.28h0a1.27,1.27,0,0,0-1.11-.64h0a1.27,1.27,0,0,0-1.11.64h0a1.27,1.27,0,0,0,0,1.28Z"/><path d="M7.9,8.86a1.27,1.27,0,0,0-1.11-.65h0a1.29,1.29,0,0,0-1.11.65h0a1.27,1.27,0,0,0,0,1.28h0a1.28,1.28,0,0,0,1.11.64h0a1.26,1.26,0,0,0,1.11-.64h0a1.27,1.27,0,0,0,0-1.28Z"/></svg>