<svg id="Layer_1" data-name="Layer 1" xmlns="http://www.w3.org/2000/svg" viewBox="0 0 24 24"><defs><style>.cls-1{fill:#51ff00;}</style></defs><path class="cls-1" d="M20.23,8.23C20.23,12.78,12,24,12,24S3.77,12.78,3.77,8.23a8.23,8.23,0,0,1,16.46,0Z"/><path d="M16.58,8.37A3.14,3.14,0,0,0,13,5.8a8.36,8.36,0,0,0-1,.23A2.75,2.75,0,0,1,13.58,3.9l-.25-.6a3.17,3.17,0,0,0-1.7,2.63l-.1,0a3.27,3.27,0,0,0-1.7-.06A3,3,0,0,0,7.38,9.24a6,6,0,0,0,1.85,3.7,2.61,2.61,0,0,0,2.19.81,8.19,8.19,0,0,1,1.31,0,2.43,2.43,0,0,0,1.68-.52,6.18,6.18,0,0,0,1.81-2.5A4.29,4.29,0,0,0,16.58,8.37Z"/><path d="M9.91,5.39a2.18,2.18,0,0,0,1.24,0,.38.38,0,0,0,.3-.41,1.61,1.61,0,0,0-.36-1.09,2.42,2.42,0,0,0-1.44-.82A3.33,3.33,0,0,1,8,2.45l0,0c0,.3.07.61.14.91A2.46,2.46,0,0,0,9.91,5.39Z"/></svg>