<svg id="Layer_1" data-name="Layer 1" xmlns="http://www.w3.org/2000/svg" viewBox="0 0 24 24"><defs><style>.cls-1{fill:#51ff00;}</style></defs><path class="cls-1" d="M20.23,8.23C20.23,12.78,12,24,12,24S3.77,12.78,3.77,8.23a8.23,8.23,0,0,1,16.46,0Z"/><path d="M15,7.09a8.12,8.12,0,0,1-1.13.41A.74.74,0,0,0,14,7.09a.64.64,0,0,1,.1-.26,2.69,2.69,0,0,1,.19-.32,1.65,1.65,0,0,1,.29.18c.18.16.27.15.17,0s.4-.27.26-.45.18-.69.09-.7.05-.32,0-.48A.84.84,0,0,1,15,4.6c0-.16-.14-.34-.25-.48l-.05,0a.42.42,0,0,0-.55.08,1.21,1.21,0,0,0-.17.33c-.07.15-.16.3-.23.43-.13-.06-.15-.15-.23-.19l-.17.18c0-.1,0-.17,0-.3l-.12.18s-.11-.18-.14-.18a.79.79,0,0,0-.8.63,1.43,1.43,0,0,1,0-.2.32.32,0,0,0-.36-.26l-.07,0c-.22.2,0,.37,0,.44a5.17,5.17,0,0,1-.16.68c-.14.37-.3.74.09,1.06A.36.36,0,0,0,11.9,7H12l.43.1.26.05c-.05.21-.19.26-.35.31-.68-.18-1.46-.1-1.79-.56s-.08-5.58-.08-5.58l-1.16,1S9.2,8,8.91,9.38c-.23,1.09.25,2.59.22,3.23a4.67,4.67,0,0,0,0,.53v1.72h1.13v-.07a18.71,18.71,0,0,0,.12-2.7h0a36,36,0,0,1,.16-3.67c.2-.8,2.32.37,3.32-.1.51-.24,1.08-.24,1.28-.8ZM12.7,7.6s0,0,0,0a.4.4,0,0,1,.27,0,1.57,1.57,0,0,1,.31.08h0A1.67,1.67,0,0,1,12.7,7.6Z"/></svg>