<svg id="Layer_1" data-name="Layer 1" xmlns="http://www.w3.org/2000/svg" viewBox="0 0 24 24"><defs><style>.cls-1{fill:#fff;}</style></defs><path d="M20.23,8.23C20.23,12.78,12,24,12,24S3.77,12.78,3.77,8.23a8.23,8.23,0,0,1,16.46,0Z"/><path class="cls-1" d="M15.46,11.25l0-.17Zm.1-.43a2.51,2.51,0,0,0,0-.27A2.51,2.51,0,0,1,15.56,10.82Zm.06-.63c0,.12,0,.25,0,.36,0-.11,0-.24,0-.36v0Z"/><path class="cls-1" d="M15.62,10.19c0,.12,0,.25,0,.36,0-.11,0-.24,0-.36v0Zm0,.36a2.51,2.51,0,0,1,0,.27A2.51,2.51,0,0,0,15.6,10.55Zm-.09.53,0,.17Z"/><path class="cls-1" d="M15.62,10.1v.09c0,.12,0,.25,0,.36a2.51,2.51,0,0,1,0,.27.29.29,0,0,1,0,.09l0,.17,0,.17a4,4,0,0,1-7.8-.87A4.45,4.45,0,0,1,8.2,8.11a13.71,13.71,0,0,1,3.06-4l0,0,.4-.21a3,3,0,0,1,.12.43,2.8,2.8,0,0,0,.88,1.61c.39.4.82.77,1.23,1.15A6.27,6.27,0,0,1,15.2,8.56a1.93,1.93,0,0,1,.19.38l.06.15a1.58,1.58,0,0,1,.09.31.36.36,0,0,1,0,.1,1.18,1.18,0,0,1,0,.2v.06A1.94,1.94,0,0,1,15.62,10.1Z"/><path class="cls-1" d="M16.21,5a1.53,1.53,0,0,1-1.39.92A1.49,1.49,0,0,1,13.39,4,4.07,4.07,0,0,1,14.66,2.2c.16-.15.28-.11.31.09a1.11,1.11,0,0,0,.38.68c.18.16.36.32.53.49A1.34,1.34,0,0,1,16.21,5Z"/></svg>