<svg id="Layer_1" data-name="Layer 1" xmlns="http://www.w3.org/2000/svg" viewBox="0 0 24 24"><defs><style>.cls-1{fill:#fff;}</style></defs><path d="M20.23,8.23C20.23,12.78,12,24,12,24S3.77,12.78,3.77,8.23a8.23,8.23,0,0,1,16.46,0Z"/><path class="cls-1" d="M7.11,10.79l-.37-.86a2.92,2.92,0,0,1,.11-2.61l0,0c-.08.81-.3.29,0,1.09.06-.5.1-.13.19-.63s.22-.54.57-1c-.16,1-.36.68,0,1.67h.07c.09-.79.19-.27.28-1.07H8s.19.06.28.75h0c.12-1.07.23-.82.34-1.89h0c0,.88.08.44.13,1.33.33-.4.26-.33.46-.42-.07.7-.31.66,0,1.35a4.93,4.93,0,0,0,.46-2.37A4.78,4.78,0,0,1,10.12,8c.09-.49.24-.63.32-1.06h0l0,1.32h.06a6.18,6.18,0,0,1,.79-2.46,7.22,7.22,0,0,0-.12,2.62c.37-.62.72-.81.81-1.5,0,0,0-.16,0-.16.19.27.16.11.27.55a8.08,8.08,0,0,1,.09.86,2.12,2.12,0,0,0,.07-1.76,2.17,2.17,0,0,1,.5,1.26,6.56,6.56,0,0,1,.69-2.29,5.88,5.88,0,0,0-.32,2.78c.29-.43.51-.43.48-.94a1.16,1.16,0,0,1,.22.92l.06,0a5.38,5.38,0,0,0,.2-.65c0-.23.06,0,.06-.26a5.38,5.38,0,0,0-.07-.69h.07c.1.44.2.45.29.88,0-.26.07-.11.13-.39A3.21,3.21,0,0,1,15,6.27c0,.45,0,.89,0,1.33s.07.43.11.86h.1c.07-.22.33-1.46.39-1.68s-.09,1-.06.71,0-.48.06-.71h0l0,1.13s0-.15.07-.25a3.65,3.65,0,0,1,.95-1.75A4.24,4.24,0,0,0,16,8.53,1.49,1.49,0,0,0,16.84,7c0,.14.1.18.12.32a2.61,2.61,0,0,1,.05.48c0,.15,0,.3,0,.46a4.57,4.57,0,0,0,.06-2.59,2.43,2.43,0,0,1,.46,1.19c.07.4.11.37.16.78h0a6,6,0,0,1-.4,2.13l-.39,1"/></svg>