<svg id="Layer_1" data-name="Layer 1" xmlns="http://www.w3.org/2000/svg" viewBox="0 0 24 24"><defs><style>.cls-1{fill:#fff;}</style></defs><path d="M20.23,8.23C20.23,12.78,12,24,12,24S3.77,12.78,3.77,8.23a8.23,8.23,0,0,1,16.46,0Z"/><path class="cls-1" d="M15.67,15.32h-.18l-2.24-6c1.79-2.72.42-4.48-.62-6.87H11.26c-1.31,2.8-2.44,4.2-.6,6.91L8.5,15.15H8.32a.29.29,0,1,0,0,.58H8.7A.3.3,0,0,0,9,15.54l2.17-5.82h.49l.07.9H12l.11-.9h.63l2.24,6a.3.3,0,0,0,.28.19h.38a.3.3,0,0,0,0-.59Z"/><rect class="cls-1" x="11.67" y="10.76" width="0.38" height="0.32"/></svg>