<svg id="Layer_1" data-name="Layer 1" xmlns="http://www.w3.org/2000/svg" viewBox="0 0 24 24"><defs><style>.cls-1{fill:#fff;}</style></defs><path d="M20.23,8.23C20.23,12.78,12,24,12,24S3.77,12.78,3.77,8.23a8.23,8.23,0,0,1,16.46,0Z"/><path class="cls-1" d="M17.12,10.27c-.11-.6-.24-1.19-.35-1.78a1.44,1.44,0,0,0-.73-1,.27.27,0,0,1-.16-.25L15.7,5.84a1,1,0,0,0-.46-.67,2,2,0,0,0-2.38.15.83.83,0,0,0-.31.75v.12h0A5.32,5.32,0,0,0,12,6.13a3.6,3.6,0,0,0-.55.07,2.16,2.16,0,0,0,0-.36A1,1,0,0,0,11,5.22a2,2,0,0,0-2.23-.07,1.08,1.08,0,0,0-.5.85c0,.45-.11.9-.17,1.35a.17.17,0,0,1-.1.13,1.46,1.46,0,0,0-.76.91c-.07.28-.11.57-.17.85l-.27,1.41V11a4.46,4.46,0,0,0,.2.55,1.91,1.91,0,0,0,1.14.87,2.69,2.69,0,0,0,2.25-.22,1.66,1.66,0,0,0,.83-1.12,1.94,1.94,0,0,0,0-.34V10a2,2,0,0,0,1.52,0v.14a8,8,0,0,0,0,.85,1.48,1.48,0,0,0,.67,1,2.68,2.68,0,0,0,3.08,0A1.46,1.46,0,0,0,17.18,11,2.76,2.76,0,0,0,17.12,10.27Zm-6.89,1.25a2,2,0,0,1-1.23.4,1.89,1.89,0,0,1-1.23-.43.84.84,0,0,1,0-1.39,2,2,0,0,1,1.41-.38,1.78,1.78,0,0,1,1,.4A.84.84,0,0,1,10.23,11.52Zm2.28-2a.77.77,0,0,1-.51.17.72.72,0,0,1-.49-.16.36.36,0,0,1,0-.6.86.86,0,0,1,1,0A.35.35,0,0,1,12.51,9.47Zm4.06,1.42a.89.89,0,0,1-.39.64,2,2,0,0,1-1.23.39,1.89,1.89,0,0,1-1.26-.46.83.83,0,0,1,0-1.3,1.86,1.86,0,0,1,1.08-.44,2,2,0,0,1,1.4.38A.86.86,0,0,1,16.57,10.89Z"/><path class="cls-1" d="M14.73,4.61l-.25,0a2.39,2.39,0,0,0-1.21.16c-.17.07-.23,0-.23-.16a1.11,1.11,0,0,1,0-.41.76.76,0,0,1,.57-.44l.3,0a1,1,0,0,1,.77.32.81.81,0,0,1,.15.52C14.87,4.59,14.81,4.62,14.73,4.61Z"/><path class="cls-1" d="M11,4.44c0,.06,0,.13,0,.2s-.06.14-.17.11-.37-.12-.55-.16a2.1,2.1,0,0,0-.9,0c-.17,0-.21,0-.19-.18a.82.82,0,0,1,.93-.74,1.09,1.09,0,0,1,.76.32A.51.51,0,0,1,11,4.44Z"/></svg>