<svg id="Layer_1" data-name="Layer 1" xmlns="http://www.w3.org/2000/svg" viewBox="0 0 24 24"><defs><style>.cls-1{fill:#fff;}</style></defs><path d="M20.23,8.23C20.23,12.78,12,24,12,24S3.77,12.78,3.77,8.23a8.23,8.23,0,0,1,16.46,0Z"/><path class="cls-1" d="M13,7.93c-1.2-.06-1.34.4-.45.91s.91.79.91.79-1.29-.57-1.78-.22a3.25,3.25,0,0,1-1.92.92c-1,.05-1.78.67-3.08.73V7.58A15.38,15.38,0,0,0,8.87,6.24a5.27,5.27,0,0,0,1.53-.4c.35-.26,1.37.12,2,.79s1.76.25.28-2A2.63,2.63,0,0,1,13.79,7s-.2.4-.48.41c0,0,.79.18.87.71S14.21,8,13,7.93Z"/><path class="cls-1" d="M15.28,8.94A1.21,1.21,0,0,0,15,8.25a.2.2,0,0,0-.3.26.86.86,0,0,1,.19.46.82.82,0,0,1-.32.71.2.2,0,0,0,0,.28.21.21,0,0,0,.16.08.28.28,0,0,0,.12,0A1.22,1.22,0,0,0,15.28,8.94Z"/><path class="cls-1" d="M16.31,8.85a2.22,2.22,0,0,0-.53-1.27.2.2,0,0,0-.3.26,1.87,1.87,0,0,1,.44,1,1.85,1.85,0,0,1-.72,1.62.2.2,0,0,0,0,.28.21.21,0,0,0,.16.08.28.28,0,0,0,.12,0A2.24,2.24,0,0,0,16.31,8.85Z"/><path class="cls-1" d="M17.29,8.77a3.25,3.25,0,0,0-.76-1.83.2.2,0,1,0-.3.26,2.72,2.72,0,0,1,.66,1.6,2.8,2.8,0,0,1-1.1,2.48.2.2,0,0,0,0,.28.21.21,0,0,0,.16.08.19.19,0,0,0,.12,0A3.21,3.21,0,0,0,17.29,8.77Z"/></svg>