<svg id="Layer_1" data-name="Layer 1" xmlns="http://www.w3.org/2000/svg" viewBox="0 0 24 24"><defs><style>.cls-1{fill:#fff;}</style></defs><path d="M20.23,8.23C20.23,12.78,12,24,12,24S3.77,12.78,3.77,8.23a8.23,8.23,0,0,1,16.46,0Z"/><path class="cls-1" d="M15.83,5.81c-.51.46-1,.92-1.48,1.42a14.68,14.68,0,0,0-1,1.23,1.45,1.45,0,0,0-.18.35c-.1.26-.1.26.14.47.05,0,.11-.09.16-.15a3.64,3.64,0,0,1,2.09-1.05c.17,0,.26.06.19.21a9.3,9.3,0,0,1-.47,1,1.07,1.07,0,0,1-.74.49,4.92,4.92,0,0,0-.55.14.63.63,0,0,0-.36.4c-.07.2-.17.38-.24.58a3.11,3.11,0,0,0-.24.81,6,6,0,0,1-.2,1.27.73.73,0,0,0,0,.33.6.6,0,0,1-.18.59,1,1,0,0,0-.18.27.67.67,0,0,1-.61.36.7.7,0,0,1-.61-.37.85.85,0,0,0-.17-.25.63.63,0,0,1-.19-.61.55.55,0,0,0,0-.31,5,5,0,0,1-.2-1.29,1.77,1.77,0,0,0-.15-.59,6.87,6.87,0,0,0-.38-.88.8.8,0,0,0-.33-.3,1.17,1.17,0,0,0-.45-.13,1.23,1.23,0,0,1-.94-.68c-.13-.25-.24-.5-.35-.76s0-.27.21-.23a3.57,3.57,0,0,1,2.12,1.11l.1.08c.26-.12.21-.3.13-.49a4.33,4.33,0,0,0-.94-1.34c-.55-.55-1.1-1.1-1.68-1.62a1.14,1.14,0,0,1-.22-1.36l.21-.32c.14-.23.28-.45.4-.68A3.45,3.45,0,0,0,8.94,2a1.21,1.21,0,0,0,0-.19H9c0,.22.1.43.13.65A2.77,2.77,0,0,1,8.81,4c-.1.19-.19.39-.3.58a.58.58,0,0,0,.19.9c.35.25.68.5,1,.77a11.19,11.19,0,0,1,1,.9,5.63,5.63,0,0,1,.61.84c.13.21.24.44.36.66a.14.14,0,0,0,.1.05h.35a.15.15,0,0,0,.1-.06,6.72,6.72,0,0,1,.4-.75,5.82,5.82,0,0,1,.62-.79A7,7,0,0,1,14,6.49c.29-.24.6-.46.91-.69.14-.11.29-.21.43-.33a.55.55,0,0,0,.16-.85,4,4,0,0,1-.6-1.51A2.92,2.92,0,0,1,15,1.74a6.63,6.63,0,0,0,.14.94,5.73,5.73,0,0,0,.4,1c.15.3.34.57.51.86A1.11,1.11,0,0,1,15.83,5.81Z"/></svg>