<svg id="Layer_1" data-name="Layer 1" xmlns="http://www.w3.org/2000/svg" viewBox="0 0 24 24"><defs><style>.cls-1{fill:#ff0;}</style></defs><path class="cls-1" d="M20.23,8.23C20.23,12.78,12,24,12,24S3.77,12.78,3.77,8.23a8.23,8.23,0,0,1,16.46,0Z"/><path d="M14.82,13H12.53a.12.12,0,0,1-.13-.08L9.79,6.45a.34.34,0,0,1,0-.08h.46s.06,0,.09.08c.64.94,1.29,1.87,1.94,2.81q1.25,1.82,2.5,3.61Z"/><path d="M9.65,13H7.54c.16-2.2.31-4.4.47-6.6h.54Q9.09,9.68,9.65,13Z"/><path d="M12.08,13H10c-.36-2.2-.73-4.4-1.1-6.62h.48a.13.13,0,0,1,.07.09l.9,2.2c.56,1.4,1.13,2.8,1.7,4.21A.73.73,0,0,1,12.08,13Z"/><path d="M17,6.37V7H11.22A.17.17,0,0,1,11.05,7c-.12-.19-.25-.37-.39-.58Z"/><path d="M17,7.37V8H11.91a.17.17,0,0,1-.17-.09c-.12-.19-.26-.37-.39-.57Z"/><path d="M17,8.36V9H12.59a.19.19,0,0,1-.17-.09L12,8.36Z"/><path d="M7.68,6.38c-.16,2.2-.31,4.4-.47,6.61H7V6.38Z"/><path d="M17,9.35V10H13.28a.17.17,0,0,1-.17-.09q-.19-.27-.39-.57Z"/><path d="M17,10.35V11H14a.16.16,0,0,1-.15-.09l-.4-.57Z"/><path d="M17,11.34V12H14.64a.16.16,0,0,1-.16-.09l-.39-.57Z"/><path d="M10.58,5.56c-.15.16-.3.31-.46.46l-.06,0H9.29a.11.11,0,0,1-.07,0l-.54-.55.67-.68a.24.24,0,0,1,.31,0Z"/><path d="M15.14,3.89a.66.66,0,1,1-1.32,0,.66.66,0,0,1,1.32,0Z"/><path d="M17,12.34V13H15.29a.12.12,0,0,1-.09-.05l-.42-.6Z"/><path d="M13.62,6h-3l.16-.15.37-.38a.35.35,0,0,1,.45-.07c.16.08.32.15.47.24a.26.26,0,0,0,.24,0l.3-.1a.54.54,0,0,1,.51.07Z"/><path d="M8.78,6H7V5.67s0,0,.06-.07l.56-.33A.29.29,0,0,1,8,5.3Z"/><path d="M16.33,6H14.94c.2-.16.37-.31.55-.44a.25.25,0,0,1,.31,0C16,5.73,16.14,5.88,16.33,6Z"/></svg>