<svg id="Layer_1" data-name="Layer 1" xmlns="http://www.w3.org/2000/svg" viewBox="0 0 24 24"><defs><style>.cls-1{fill:#ff0;}</style></defs><path class="cls-1" d="M20.23,8.23C20.23,12.78,12,24,12,24S3.77,12.78,3.77,8.23a8.23,8.23,0,0,1,16.46,0Z"/><path d="M12.39,13.65c.19-.07.22-.13.11-.31a1.55,1.55,0,0,0-.51-.51,1.4,1.4,0,0,0-.3-.15l-.41-.19c0-.26.18-.33.4-.26l.38.11a4,4,0,0,1,.52.2,2.33,2.33,0,0,0,2.4-.17l.13-.09a.91.91,0,0,0,.16-.11l0-.08-.15,0h-.18l-.27,0a1.55,1.55,0,0,1,.12-.22c.09-.1.18-.19.26-.29a1,1,0,0,0,.13-.16.57.57,0,0,0,0-.63v0L15,11l-.06.07-.11.15,0,0h0s0,0,0,.05l-.12.11-.1.09-.12.1-.11.09-.07.06-.15.11a.27.27,0,0,1-.26,0c-.05,0-.06-.17-.06-.26h0a.33.33,0,0,1,0-.14h0l0,0v0a.65.65,0,0,1,0-.13v0s0-.11.05-.16v0l0-.1,0-.12a.45.45,0,0,0,0-.11v-.1h0v0a.06.06,0,0,1,0,0v0a.44.44,0,0,0-.06-.16l0,0-.11-.16a1.21,1.21,0,0,0,0,.18v0a.56.56,0,0,0,0,.12.11.11,0,0,1,0,0c0,.06,0,.13-.07.2v0l0,0-.06.1v0l0,0,0,0,0,.05-.07.09-.16.16-.09.08,0,0,0,0,0,0-.05,0,0,0-.1.05,0,0h0l0,0h-.05l0,0-.06,0-.09,0h-.1l-.09,0h-.09l-.25,0h0c-.37,0-.37,0-.51-.38l0,0c-.14-.19-.07-.35,0-.56a11.38,11.38,0,0,0,.37-1.3A1.38,1.38,0,0,1,12,8.9a1.49,1.49,0,0,0,0-.21c0-.17,0-.35-.07-.52A2.73,2.73,0,0,0,11.37,7a2.7,2.7,0,0,0-.06.41c-.08.84-.13,1.69-.21,2.53a1.5,1.5,0,0,1-.33.85c-.29-.15-.29-.15-.18-.45a5.62,5.62,0,0,0,.2-.62,1.05,1.05,0,0,0-.1-.86,2,2,0,0,0-.81.71,1.09,1.09,0,0,0,0,1.09c-.28.11-.54.24-.8.32a2.7,2.7,0,0,1-.84.15,1.85,1.85,0,0,1-1.32-.46v3.19l.84-.3a7.19,7.19,0,0,1,.85-.3c.45-.11.44-.08.69.3a3.34,3.34,0,0,0,.61.74.47.47,0,0,0,.81-.27,7,7,0,0,0,.14-.8l0-.25.1.19a1.2,1.2,0,0,0,1.42.51Z"/><path d="M15.16,12.61l0,0a3,3,0,0,1-1.53.47,2.55,2.55,0,0,1-1.15-.29h0a1.91,1.91,0,0,1,.31.38.52.52,0,0,1,.08.44.54.54,0,0,1-.34.3A1.43,1.43,0,0,1,12,14h-.18l-.06.41,3.66-.21c0-.13,0-.21-.05-.3C15.3,13.48,15.22,13,15.16,12.61Z"/><path d="M17.1,3.37A4,4,0,0,1,16,4.6a7,7,0,0,1-1,.6.5.5,0,0,0-.3.51,43,43,0,0,0,.22,5,1.13,1.13,0,0,0-.1.13l-.09.11-.19.23c-.14.13-.29.25-.44.37,0,0,0-.08,0-.12s.09-.31.13-.48A1.11,1.11,0,0,0,14,10l-.35-.43-.17.53-.06.23a1.78,1.78,0,0,1-.13.39,1.41,1.41,0,0,1-1.13.78A14.36,14.36,0,0,0,12.28,9l0-.35c0-.18-.05-.36-.08-.55a2.9,2.9,0,0,0-.72-1.49h0a1.75,1.75,0,0,0-.24-.23,2.86,2.86,0,0,0-1-.49c-.58-.17-1.17-.3-1.75-.45-.27-.07-.52-.16-.84-.26A3.44,3.44,0,0,1,10.24,5c.41.17.84.29,1.26.44s.47.09.53-.31c.14-.85.25-1.7.41-2.54a1.74,1.74,0,0,1,.14-.38h2c0,.27,0,.61.05.95s0,.65,0,1a.33.33,0,0,0,.16.24c.07,0,.2,0,.28-.1.36-.3.72-.61,1.07-.93A.61.61,0,0,1,17.1,3.37Z"/></svg>