<svg id="Layer_1" data-name="Layer 1" xmlns="http://www.w3.org/2000/svg" viewBox="0 0 24 24"><defs><style>.cls-1{fill:#ff0;}</style></defs><path class="cls-1" d="M20.23,8.23C20.23,12.78,12,24,12,24S3.77,12.78,3.77,8.23a8.23,8.23,0,0,1,16.46,0Z"/><path d="M8.18,13.17h-.6a.38.38,0,0,1,0-.1c0-.1,0-.15-.12-.16s-.08,0-.09-.1c-.05-.75-.11-1.5-.17-2.25a.37.37,0,0,1,.1-.3L7.54,10a1,1,0,0,0,.35-.7c0-.28,0-.56,0-.86a1.65,1.65,0,0,1,.18,1.3,6.46,6.46,0,0,1-.28.73,1,1,0,0,0-.07.92,7.52,7.52,0,0,1,.34,1.38Z"/><path d="M15.28,13.07h-.49s0-.05-.07-.07a1.69,1.69,0,0,1-.3-.89c-.1-.65-.22-1.3-.3-2,0-.25,0-.51,0-.77a.42.42,0,0,1,.32-.51,2.19,2.19,0,0,0,.2-.11c0,.25.05.48.06.71s0,.7,0,1,.08,1,.13,1.43a1.92,1.92,0,0,0,0,.22,1,1,0,0,0,.26.67A2.29,2.29,0,0,1,15.28,13.07Z"/><path d="M16.8,2.58a1.57,1.57,0,0,1-.65,1.31.2.2,0,0,0-.07.12,3.06,3.06,0,0,0,0,.32,1.7,1.7,0,0,0,0,.45,1.07,1.07,0,0,1-.29.83c-.06.07-.22.07-.34.1h-.11v0l.43.07c-.07.29-.13.59-.22.89s-.25.73-.39,1.1A1.8,1.8,0,0,1,14,8.89a.14.14,0,0,0-.1.15c0,.56.06,1.12.08,1.68,0,.31,0,.62,0,.93s.1.73.1,1.1a1.19,1.19,0,0,0,.43.83l.1.12h-.37a.51.51,0,0,1-.59-.46c-.06-.45-.11-.9-.18-1.34s-.13-.67-.22-1-.22-.78-.35-1.16a3.43,3.43,0,0,0-.23-.52.13.13,0,0,0-.1-.06l-2.17-.06a.2.2,0,0,0-.12.06L9,10.68a1.57,1.57,0,0,0-.33.73,1.07,1.07,0,0,0,.07.53,8.62,8.62,0,0,0,.75,1.67s0,.05.05.11H8.89a.09.09,0,0,1-.11-.09.42.42,0,0,0,0-.1c0-.09,0-.2-.2-.14a5.49,5.49,0,0,0-.12-.61c-.11-.37-.24-.73-.36-1.09,0-.12-.09-.23-.13-.34a.61.61,0,0,1,0-.51,3.69,3.69,0,0,0,.42-1.33,1.22,1.22,0,0,0-.06-.63c-.14-.31-.27-.61-.39-.92s-.13-.47-.2-.7a.14.14,0,0,0,0-.06h0c0,.25-.05.5-.05.75a.85.85,0,0,1-.15.53,2.44,2.44,0,0,1-.3-1.23.94.94,0,0,1,.3-.54c.14-.16.29-.31.43-.46a1.63,1.63,0,0,1,1.16-.52,7.4,7.4,0,0,1,1.69.17,3.83,3.83,0,0,0,1.07,0c.39,0,.79,0,1.19,0a3.27,3.27,0,0,0,.44,0A.75.75,0,0,0,14.13,5a2.57,2.57,0,0,0-.06-.4c0-.25-.06-.5-.07-.75a.16.16,0,0,0-.11-.16l-.26-.05a.52.52,0,0,1-.36-.18,1.41,1.41,0,0,1-.37-.74V2.69c0-.19,0-.23.24-.18a1.86,1.86,0,0,1,1,.55l.2.24a1.53,1.53,0,0,1,1.48.1.88.88,0,0,1,.41-.64A1.32,1.32,0,0,1,16.8,2.58Z"/></svg>