<svg id="Layer_1" data-name="Layer 1" xmlns="http://www.w3.org/2000/svg" viewBox="0 0 24 24"><defs><style>.cls-1{fill:#ff0;}</style></defs><path class="cls-1" d="M20.23,8.23C20.23,12.78,12,24,12,24S3.77,12.78,3.77,8.23a8.23,8.23,0,0,1,16.46,0Z"/><path d="M16.89,10.42l-.82-.57a.31.31,0,0,0-.18-.08,1.23,1.23,0,0,0-.28,0h-.36L13,8.29h3.27a.51.51,0,0,0,.5-.35.45.45,0,0,0-.19-.49l-.83-.57c0-.06-.13-.07-.17-.08l-.28,0h-.74a1.76,1.76,0,0,0-1.76-1.65H11.1V2H9.6V14.41h1.5V11.26h5.48a.53.53,0,0,0,.5-.35A.43.43,0,0,0,16.89,10.42ZM12.28,8.06,12.43,7h.31l0,1.05Zm.86,0L13.06,7h.31l.19,1.05Zm.86,0L13.68,7H14l.43,1.05ZM14.55,7h.73l.27,0,.88.61a.21.21,0,0,1,.1.23.29.29,0,0,1-.29.19H14.86L14.31,7ZM11.1,5.36h1.68a1.54,1.54,0,0,1,1.54,1.42H11.1Zm1,1.65-.28,1.05h-.43L11.81,7Zm-1,0h.39l-.39.8Zm1.59,1.27L15,9.75H13.29L11.1,8.44V8.29ZM13.91,10h.41l.11.45-.51-.3ZM11.1,8.61,13,9.75H11.66a1.23,1.23,0,0,0-.28,0,.31.31,0,0,0-.18.08l-.1.07Zm0,2.42V10.2l.29-.2.27,0h.18l-.68,1Zm1.2,0h-.56l.52-1h.41Zm.57,0,.21-1h.29l.12.06-.05,1ZM14,11l-.07-.72.54.33.1.39Zm1.43,0-.38-.22L14.73,10h.41l.57,1Zm1.42-.19a.27.27,0,0,1-.29.19h-.28l-.73-1h0l.27,0,.88.61A.2.2,0,0,1,16.86,10.84Z"/></svg>