<svg id="Layer_1" data-name="Layer 1" xmlns="http://www.w3.org/2000/svg" viewBox="0 0 24 24"><defs><style>.cls-1{fill:#ff0;}</style></defs><path class="cls-1" d="M20.23,8.23C20.23,12.78,12,24,12,24S3.77,12.78,3.77,8.23a8.23,8.23,0,0,1,16.46,0Z"/><path d="M18,7.2a4.34,4.34,0,0,0-.52-.07.72.72,0,0,1-.63-.48A.71.71,0,0,1,17,5.88c.09-.1.18-.19.27-.3-.31-.3-.66-.18-1-.12V4.85H16.2l-.09,0a1.18,1.18,0,0,0-.65.55c-.09.16-.18.22-.35.19h0a.79.79,0,0,1-.63-.19A2.27,2.27,0,0,0,13.14,5c-.75,0-1.5,0-2.26,0a5.7,5.7,0,0,0-2,.35A2.7,2.7,0,0,0,7.31,6.72c0,.06-.11.09-.18.15a3.22,3.22,0,0,0,0-.44.4.4,0,0,0-.51-.34.74.74,0,0,0-.55.72c0,.05,0,.09,0,.15L6,6.9c-.12-.07-.21-.06-.26,0s0,.18.09.26a1.09,1.09,0,0,0,1,.13,4.53,4.53,0,0,1,.44-.15c0,.67,0,1.32,0,2,0,0,0,.08-.08.1a1.08,1.08,0,0,0-.56.68,1.89,1.89,0,0,0,.11,1.15s0,0,0,0h.6c-.1-.31-.2-.59,0-.87a1.2,1.2,0,0,1,.78-.41l0,.14a1.6,1.6,0,0,0,.5.86.49.49,0,0,1,.24.51l0,0h.66l.09,0a.66.66,0,0,1,0-.14.39.39,0,0,0-.15-.37,1.26,1.26,0,0,1-.27-.37.61.61,0,0,1,.13-.77.36.36,0,0,0,.16-.35h0l.17.08.08,0,.09,0a2.47,2.47,0,0,0,.6.13h.09a6.56,6.56,0,0,0,1.25,0,4.71,4.71,0,0,0-.07.62,4.28,4.28,0,0,0,.07.72.26.26,0,0,0,.16.18c.2,0,.4,0,.6,0a1.89,1.89,0,0,1,0-1.44s.07-.07.1-.1.07.07.08.11a1.77,1.77,0,0,0,.59,1,.38.38,0,0,1,.17.36v0h.8l0,0a.24.24,0,0,1-.08-.06,2.39,2.39,0,0,1-.62-1,.94.94,0,0,1,.72-1.28,6.49,6.49,0,0,1,1.81-.26,4.4,4.4,0,0,0,.89-.08,1.86,1.86,0,0,0,1.05-.53C18.41,7.57,18.33,7.29,18,7.2ZM6.73,6.9a.16.16,0,0,1-.24,0,.25.25,0,0,1-.09-.2.55.55,0,0,1,.14-.26.21.21,0,0,1,.2,0s0,0,0,0a.3.3,0,0,1,0,.26A1.19,1.19,0,0,1,6.73,6.9Z"/></svg>