<svg id="Layer_1" data-name="Layer 1" xmlns="http://www.w3.org/2000/svg" viewBox="0 0 24 24"><defs><style>.cls-1{fill:#ff0;}</style></defs><path class="cls-1" d="M20.23,8.23C20.23,12.78,12,24,12,24S3.77,12.78,3.77,8.23a8.23,8.23,0,0,1,16.46,0Z"/><path d="M19.39,7.47v0l-.38.3a.81.81,0,0,1-.41.11.61.61,0,0,0-.31.13.75.75,0,0,1-.47.21.13.13,0,0,0-.12.07.56.56,0,0,1-.47.25A.3.3,0,0,0,17,8.7a.42.42,0,0,1-.2.1,2.74,2.74,0,0,0-.28,0A.65.65,0,0,0,16.2,9a.75.75,0,0,1-.47.17.67.67,0,0,0-.49.23.76.76,0,0,1-.54.22.42.42,0,0,1-.42-.27A.82.82,0,0,1,14.17,9,.53.53,0,0,0,14,8.68a.61.61,0,0,1-.33-.49.24.24,0,0,0,0-.1.74.74,0,0,1-.28-.45s-.07-.09-.11-.13A.42.42,0,0,1,13,7.13a.25.25,0,0,0-.12-.24.47.47,0,0,1-.2-.45.18.18,0,0,0-.08-.18.14.14,0,0,1-.07-.08c-.06-.18-.11-.37-.16-.55l-.06-.35a.38.38,0,0,1,0-.12,1,1,0,0,1,.43.36c0,.06.09.1.13.16s.13.21.2.32a.78.78,0,0,0,.1.15.49.49,0,0,1,.19.28.33.33,0,0,0,.21.28c.14,0,.18.17.21.3a.33.33,0,0,0,.15.25.57.57,0,0,1,.17.41.17.17,0,0,0,.11.15,2.52,2.52,0,0,1,.3.22,1,1,0,0,1,.1-.17c.06-.11.13-.21.2-.32a.31.31,0,0,0,0-.13,1,1,0,0,1,.23-.75.58.58,0,0,0,.13-.31.38.38,0,0,1,.05-.21,2.53,2.53,0,0,0,.26-.64c.06-.17.2-.32.2-.52a.05.05,0,0,1,0,0,.8.8,0,0,0,.22-.46A.26.26,0,0,1,16,4.37a2,2,0,0,0,.33-.64,3.61,3.61,0,0,1,.4-.59h.05a1.49,1.49,0,0,1,0,.21,1.81,1.81,0,0,1,0,.4,3.3,3.3,0,0,1-.13.37,1.05,1.05,0,0,0-.06.24,1.11,1.11,0,0,1-.2.61.4.4,0,0,0,0,.13c0,.09,0,.2-.08.29a.74.74,0,0,0-.08.3c0,.1-.08.2-.11.31a.65.65,0,0,0-.08.27.72.72,0,0,1-.14.49.13.13,0,0,0,0,.09.82.82,0,0,1-.17.66.43.43,0,0,0,0,.17l0,.41a1.49,1.49,0,0,0,0,.21l.22,0h0a2.46,2.46,0,0,0,.39-.09,4,4,0,0,0,.35-.2.29.29,0,0,1,.16,0,.35.35,0,0,0,.33-.07.59.59,0,0,1,.43-.1.2.2,0,0,0,.17-.07A.45.45,0,0,1,18,7.56a1,1,0,0,0,.51-.08h.08l.61,0A.86.86,0,0,1,19.39,7.47Z"/><path d="M11.86,7.52c0,.07,0,.1,0,.14a1.13,1.13,0,0,1-.46.67.54.54,0,0,0-.2.28.72.72,0,0,1-.27.37.29.29,0,0,0-.09.15.6.6,0,0,1-.26.44.31.31,0,0,0-.19.26c0,.07-.07.14-.13.2s-.15.11-.21.18a.63.63,0,0,0-.15.26.69.69,0,0,1-.31.38.77.77,0,0,0-.32.46c-.07.24-.34.55-.59.52a.81.81,0,0,1-.4-.18.8.8,0,0,1-.13-.13.44.44,0,0,0-.38-.19.62.62,0,0,1-.5-.25A.16.16,0,0,0,7.14,11a.82.82,0,0,1-.46-.24s-.14-.06-.21-.07a.36.36,0,0,1-.28-.21A.24.24,0,0,0,6,10.34.55.55,0,0,1,5.52,10a.23.23,0,0,0-.11-.08s-.11,0-.15-.06a3.39,3.39,0,0,1-.34-.31c-.12-.12-.22-.26-.33-.39v0a.79.79,0,0,1,.6.13l.07,0a.63.63,0,0,1,.41.19s.1,0,.15.07a1.4,1.4,0,0,1,.3.15c.1.07.18.16.33.12a.34.34,0,0,1,.31.14.54.54,0,0,0,.29.17,1,1,0,0,1,.31.23.28.28,0,0,0,.23.1,1.08,1.08,0,0,1,.34,0v-.16c0-.14,0-.28,0-.42a.17.17,0,0,0,0-.12A1.05,1.05,0,0,1,7.72,9a.48.48,0,0,0,0-.24,1.44,1.44,0,0,1-.08-.46,4.59,4.59,0,0,0-.1-.51c0-.06,0-.12,0-.18a.52.52,0,0,0,0-.18.45.45,0,0,1,0-.36.3.3,0,0,0,0-.16,1,1,0,0,1,0-.59.42.42,0,0,0,0-.22.82.82,0,0,1,0-.44c0-.13,0-.26,0-.39a.42.42,0,0,1,0-.15h0a.83.83,0,0,1,.08.12,2.62,2.62,0,0,1,.21.45A1.72,1.72,0,0,1,7.78,6a.6.6,0,0,0,.06.23A1.1,1.1,0,0,1,8,6.9a.83.83,0,0,0,0,.15c0,.1.06.19.07.29a.72.72,0,0,0,.07.28.5.5,0,0,1,.06.32.5.5,0,0,0,.08.3.69.69,0,0,1,.13.46.18.18,0,0,0,.05.12.78.78,0,0,1,.16.62.2.2,0,0,0,.07.2,1.08,1.08,0,0,1,.14.26s0,.1.05.15.15.17.24,0a.93.93,0,0,1,.38-.38s0-.06,0-.09a.49.49,0,0,1,.34-.37A.29.29,0,0,0,10,9.11a.69.69,0,0,1,.38-.37.13.13,0,0,0,.08-.11.49.49,0,0,1,.26-.35.88.88,0,0,0,.36-.3.2.2,0,0,1,.1-.08l.47-.29Z"/><path d="M9.13,12.3c0,.19,0,.37,0,.55a.83.83,0,0,1-.08.22H9c-.12-.18-.23-.36-.34-.55a.67.67,0,0,1-.1-.23A.23.23,0,0,1,8.69,12C9.05,11.84,9.17,11.93,9.13,12.3Z"/><path d="M14.65,10.18c-.13.17-.23.34-.36.5s-.09.09-.15.15,0-.07,0-.09c0-.26,0-.51,0-.76s.15-.34.4-.26S14.84,9.92,14.65,10.18Z"/></svg>