<svg id="Layer_1" data-name="Layer 1" xmlns="http://www.w3.org/2000/svg" viewBox="0 0 24 24"><defs><style>.cls-1{fill:#ff0;}</style></defs><path class="cls-1" d="M20.23,8.23C20.23,12.78,12,24,12,24S3.77,12.78,3.77,8.23a8.23,8.23,0,0,1,16.46,0Z"/><path d="M16,10.74a14.55,14.55,0,0,1-1.73.56,6,6,0,0,0-.72.22c-.15.06-.34.12-.32.36s.05.55.33.66a6.68,6.68,0,0,0,.8.2c.1,0,.2.09.3.13l0,.09H12.48l0-.08a2.1,2.1,0,0,1,.26-.13c.24-.08.29-.15.2-.39a1,1,0,0,0-.61-.67,2.53,2.53,0,0,1-1.25-1.06l-.78-1.07a.5.5,0,0,0-.43-.2c-.46,0-.91,0-1.37,0s-.77-.17-.76-.78c-.62-.13-.78-.52-.44-1-.55-.42-.59-.68-.23-1a2.6,2.6,0,0,1-.27-.63c0-.26.16-.42.39-.52-.23-.62,0-1,.59-1a.6.6,0,0,1,.16-.66.58.58,0,0,1,.62-.08,3.57,3.57,0,0,1,.58-.4.5.5,0,0,1,.57.25c.56-.21.79-.09,1,.46.26.73.53,1.46.8,2.2l.11,0a2.12,2.12,0,0,1,2.18.24l.53.34a.81.81,0,0,0,.35.14.64.64,0,0,0,.41-.11c.06,0,0-.25,0-.36-.15-.39-.37-.75-.49-1.14a3.3,3.3,0,0,1-.12-1c0-.37.31-.55.64-.63a.81.81,0,0,1,.9.28.6.6,0,0,0,.19.16l.37.28a1.92,1.92,0,0,0-.39.14.37.37,0,0,0-.2.48c0,.11.09.2.13.31.13.3.09.39-.26.53.17.26.32.53.5.76a4.49,4.49,0,0,1,.9,1.91A1.93,1.93,0,0,1,16,10.74Z"/></svg>