<svg xmlns="http://www.w3.org/2000/svg" width="32" height="32" viewBox="0 0 32 32" fill="none">
  <rect width="32" height="32" rx="8" fill="#15803d"/>
  <path d="M16 6C10.477 6 6 10.477 6 16C6 21.523 10.477 26 16 26C21.523 26 26 21.523 26 16C26 10.477 21.523 6 16 6ZM16 8C20.418 8 24 11.582 24 16C24 20.418 20.418 24 16 24C11.582 24 8 20.418 8 16C8 11.582 11.582 8 16 8Z" fill="white"/>
  <circle cx="16" cy="16" r="4" fill="white"/>
  <path d="M16 10L18 14H14L16 10Z" fill="white"/>
  <path d="M16 22L18 18H14L16 22Z" fill="white"/>
  <path d="M10 16L14 18V14L10 16Z" fill="white"/>
  <path d="M22 16L18 18V14L22 16Z" fill="white"/>
</svg>
