<svg id="Layer_1" data-name="Layer 1" xmlns="http://www.w3.org/2000/svg" viewBox="0 0 24 24"><defs><style>.cls-1{fill:#0071bd;}.cls-2{fill:#fff;}</style></defs><path class="cls-1" d="M20.23,8.23C20.23,12.78,12,24,12,24S3.77,12.78,3.77,8.23a8.23,8.23,0,0,1,16.46,0Z"/><path class="cls-2" d="M14.51,4.44A1,1,0,0,0,14.4,5.6c.18.32.41.62.61.93a11.33,11.33,0,0,1,.72,1.26,2.28,2.28,0,0,1-.7,2.94,6.31,6.31,0,0,1-3,1.42.21.21,0,0,0-.21.2,2.06,2.06,0,0,0,0,.26h0a.2.2,0,0,0,.14.21l1.42.49.56.2s0,.05-.06.07a.84.84,0,0,1-.28.09h0a14.16,14.16,0,0,1-2.07,0c-.28,0-.35-.09-.27-.36a2.16,2.16,0,0,0,0-1.13,5,5,0,0,1-3.08-1.89,1.81,1.81,0,0,1-.25-.3c-.09-.11-.16-.23,0-.36-.29-.41-.29-.41-.17-.6-.08-.17-.36-.28-.12-.53L7.4,8.16l0,0,.22.1a5,5,0,0,0,1.86.56,1.75,1.75,0,0,0,1.31-.34,3.18,3.18,0,0,1,2.25-.72c.6,0,.7-.15.46-.71s-.47-1-.65-1.59a3.3,3.3,0,0,1-.13-1.65,1.48,1.48,0,0,1,2-1.15.85.85,0,0,1,.56.59.31.31,0,0,0,.11.18c.33.18.66.35,1,.54l.05,0a.19.19,0,0,1-.11.34h0a7.74,7.74,0,0,1-.84-.14A1.1,1.1,0,0,0,14.51,4.44Z"/></svg>