<svg id="Layer_1" data-name="Layer 1" xmlns="http://www.w3.org/2000/svg" viewBox="0 0 24 24"><defs><style>.cls-1{fill:#0071bd;}.cls-2{fill:#fff;}</style></defs><path class="cls-1" d="M20.23,8.23C20.23,12.78,12,24,12,24S3.77,12.78,3.77,8.23a8.23,8.23,0,0,1,16.46,0Z"/><path class="cls-2" d="M16.84,5.76a4.48,4.48,0,0,0-1.7.29l-.41.2s0-.07,0-.11a1.38,1.38,0,0,0,0-1,.33.33,0,0,0-.5-.22h0l0,0a2.63,2.63,0,0,0-.6-1.07c-.29-.35-.61-.68-.91-1l-.21-.23a.59.59,0,0,0-.9,0c-.13.15-.27.28-.41.42a7.24,7.24,0,0,0-1,1.3,4.6,4.6,0,0,0-.25.55.36.36,0,0,1,0,.07l-.09,0a.32.32,0,0,0-.43.17,1.41,1.41,0,0,0-.06,1l0,.15-.2-.12a3.27,3.27,0,0,0-1.18-.34c-.24,0-.49,0-.74,0A.42.42,0,0,0,6.72,6v.27l.12.5A3.42,3.42,0,0,0,7.36,8l0,.06L7.31,8a.3.3,0,0,0-.3.41,2.77,2.77,0,0,0,.27.61,3.29,3.29,0,0,0,.33.41l.08.09-.08,0a.31.31,0,0,0-.11.47,3.18,3.18,0,0,0,2.7,1.27,2,2,0,0,0,1.48-.76l.14-.17-.25,3.43h.85l-.25-3.42.13.15a2,2,0,0,0,1.59.77A3.07,3.07,0,0,0,16,10.58a3.48,3.48,0,0,0,.46-.48.32.32,0,0,0-.11-.52s0,0-.05,0l.08-.1a2.33,2.33,0,0,0,.56-.86.83.83,0,0,0,0-.15.3.3,0,0,0-.3-.41H16.6s0,0,0,0a3.81,3.81,0,0,0,.59-1.48,1.84,1.84,0,0,1,.05-.25V6A.44.44,0,0,0,16.84,5.76Z"/></svg>