<svg id="Layer_1" data-name="Layer 1" xmlns="http://www.w3.org/2000/svg" viewBox="0 0 24 24"><defs><style>.cls-1{fill:#0071bd;}.cls-2{fill:#fff;}</style></defs><path class="cls-1" d="M20.23,8.23C20.23,12.78,12,24,12,24S3.77,12.78,3.77,8.23a8.23,8.23,0,0,1,16.46,0Z"/><path class="cls-2" d="M11.11,7.45A2.75,2.75,0,0,0,10,6.13a.77.77,0,0,0-1.13.3V6.6a.77.77,0,0,0,.34.67c.25.17.55.41.59.56s.13.41.24.72a9.31,9.31,0,0,1,.66,2.59.55.55,0,0,1-.2.3.71.71,0,0,0-.47.84,1,1,0,0,0,0,.1.7.7,0,0,0,.82.41A1.78,1.78,0,0,0,12,11.62c.27-.76-.14-2-.66-3.53Z"/><path class="cls-2" d="M16.88,7.71C16.73,6.91,15.73,6,14.53,5L14,4.55A2.72,2.72,0,0,0,12.37,4a.77.77,0,0,0-.82.83h0l.08.15a.76.76,0,0,0,.62.41,1.58,1.58,0,0,1,.77.41c.13.13.33.22.57.43a9.22,9.22,0,0,1,1.52,1.67.66.66,0,0,1,.06.2v0a.49.49,0,0,1-.09.31c-.19.27.18.62.41.86l.09.07a.69.69,0,0,0,.91-.06A1.82,1.82,0,0,0,16.88,7.71Z"/></svg>