<svg id="Layer_1" data-name="Layer 1" xmlns="http://www.w3.org/2000/svg" viewBox="0 0 24 24"><defs><style>.cls-1{fill:#0071bd;}.cls-2{fill:#fff;}</style></defs><path class="cls-1" d="M20.23,8.23C20.23,12.78,12,24,12,24S3.77,12.78,3.77,8.23a8.23,8.23,0,0,1,16.46,0Z"/><polygon class="cls-2" points="14.03 12.21 14.82 12.21 14.39 11.12 14.03 12.21"/><polygon class="cls-2" points="13.24 11.42 14.03 11.42 13.6 10.33 13.24 11.42"/><polygon class="cls-2" points="12.45 10.63 13.24 10.63 12.81 9.54 12.45 10.63"/><polygon class="cls-2" points="11.66 9.84 12.45 9.84 12.02 8.75 11.66 9.84"/><polygon class="cls-2" points="10.87 9.05 11.66 9.05 11.23 7.96 10.87 9.05"/><polygon class="cls-2" points="10.44 7.17 10.08 8.26 10.87 8.26 10.44 7.17"/><polygon class="cls-2" points="9.65 6.38 9.29 7.47 10.08 7.47 9.65 6.38"/><polygon class="cls-2" points="8.86 5.59 8.5 6.68 9.29 6.68 8.86 5.59"/><polygon class="cls-2" points="7.71 5.89 8.5 5.89 8.07 4.8 7.71 5.89"/><polygon class="cls-2" points="6.92 5.1 7.71 5.1 7.28 4.01 6.92 5.1"/><polygon class="cls-2" points="9.17 12.21 9.96 12.21 9.59 11.12 9.17 12.21"/><polygon class="cls-2" points="9.96 11.42 10.74 11.42 10.38 10.33 9.96 11.42"/><polygon class="cls-2" points="10.75 10.63 11.54 10.63 11.17 9.54 10.75 10.63"/><polygon class="cls-2" points="12.75 7.96 12.33 9.05 13.12 9.05 12.75 7.96"/><polygon class="cls-2" points="13.54 7.17 13.12 8.26 13.9 8.26 13.54 7.17"/><polygon class="cls-2" points="14.33 6.38 13.91 7.47 14.7 7.47 14.33 6.38"/><polygon class="cls-2" points="14.7 6.68 15.48 6.68 15.12 5.59 14.7 6.68"/><polygon class="cls-2" points="15.49 5.89 16.27 5.89 15.91 4.8 15.49 5.89"/><polygon class="cls-2" points="16.7 4.01 16.28 5.1 17.07 5.1 16.7 4.01"/></svg>