<svg id="Layer_1" data-name="Layer 1" xmlns="http://www.w3.org/2000/svg" viewBox="0 0 24 24"><defs><style>.cls-1{fill:#0071bd;}.cls-2{fill:#fff;}</style></defs><path class="cls-1" d="M20.23,8.23C20.23,12.78,12,24,12,24S3.77,12.78,3.77,8.23a8.23,8.23,0,0,1,16.46,0Z"/><path class="cls-2" d="M16.47,14.38l-.08-.05h0l-.51-1.41h.45a.15.15,0,0,0,.15-.14.15.15,0,0,0-.15-.15h-.56l-.51-1.4h.4a.15.15,0,0,0,.15-.14.15.15,0,0,0-.15-.15h-.5l-.51-1.4h.49a.15.15,0,0,0,.14-.15.14.14,0,0,0-.14-.14h-.6L14,7.71h.48a.15.15,0,0,0,.14-.15.14.14,0,0,0-.14-.14h-.58l-.45-1.24h.35A.15.15,0,0,0,13.92,6a.14.14,0,0,0-.14-.14h-.46l-.24-.68,0-.09h-.36v-.2h.82l.83,1.17a.26.26,0,0,0,.2.1h0L15.44,6a.26.26,0,0,0,.19-.15.24.24,0,0,0,0-.23l-1-1.39h0A5,5,0,0,1,13,2.41l0-.35a.41.41,0,0,0-.37-.36l-.64-.06a.44.44,0,0,0-.33.12.41.41,0,0,0-.12.33l.11,2.47.27,0v.4h.68v.2h-.22L12,5.74h-.52a.15.15,0,0,0-.14.15.14.14,0,0,0,.14.14h.35L7.7,13.14H7.57a.11.11,0,0,0-.11.1.11.11,0,0,0,.11.11h.6a.11.11,0,0,0,.1-.11.11.11,0,0,0-.1-.1H8l2.29-4,2,.33-.05,1.58h.29l0-1.58,1.71,0L16,14.13l-.07,0a.1.1,0,0,0-.1.18l.28.15h0l.25.13.05,0a.1.1,0,0,0,.09-.06A.1.1,0,0,0,16.47,14.38Zm-4.14-5L10.47,9l1.9-.92Zm.05-1.4-1.86.9L12.18,6h0l.28-.48Zm.38-2.53h.08l1.33,3.68L12.67,8Zm-.08-.62.42-.43.31.43Zm2.81.94a.12.12,0,0,1,0,.1.09.09,0,0,1-.08.06l-.87.16a.12.12,0,0,1-.11,0L13.25,4.33l1.28.06ZM14.41,4.25l-1.24-.06L13,2.66A5.34,5.34,0,0,0,14.41,4.25ZM11.63,2.08h0a.27.27,0,0,1,.08-.22.27.27,0,0,1,.19-.08h0l.64.05a.28.28,0,0,1,.25.25L13,4.15A2.62,2.62,0,0,1,11.67,3Zm.1,2.32-.05-1.23a2.81,2.81,0,0,0,1.25,1Zm.76.39H12V4.5l.92-.15Zm.13,4.57,0-1.21,1.57,1.17Z"/></svg>