<svg id="Layer_1" data-name="Layer 1" xmlns="http://www.w3.org/2000/svg" viewBox="0 0 32 32"><defs><style>.cls-1{fill:#51ff00;}</style></defs><path class="cls-1" d="M27,11C27,17,16,32,16,32S5,17,5,11A11,11,0,0,1,27,11Z"/><path d="M19.76,17.32H16.71c-.09,0-.14,0-.17-.11Q14.8,12.91,13.05,8.6l0-.11h.61c.05,0,.09.06.12.1l2.59,3.75,3.33,4.82Z"/><path d="M12.86,17.31H10.05l.63-8.81h.71Z"/><path d="M16.1,17.31H13.31c-.49-2.93-1-5.86-1.47-8.82h.64s.08.06.1.11l1.19,2.93L16,17.15Z"/><path d="M22.6,8.5v.88H15a.22.22,0,0,1-.22-.11c-.17-.26-.34-.5-.53-.77Z"/><path d="M22.61,9.83v.87H15.88a.23.23,0,0,1-.23-.11c-.16-.25-.34-.5-.52-.76Z"/><path d="M22.61,11.15V12H16.79a.22.22,0,0,1-.22-.12c-.17-.25-.34-.5-.53-.76Z"/><path d="M10.24,8.5l-.63,8.81H9.38V8.5Z"/><path d="M22.61,12.47v.88H17.7a.22.22,0,0,1-.22-.12L17,12.47Z"/><path d="M22.61,13.8v.87h-4a.22.22,0,0,1-.22-.11c-.16-.25-.34-.5-.52-.76Z"/><path d="M22.61,15.12V16H19.52a.22.22,0,0,1-.21-.11l-.52-.77Z"/><path d="M14.11,7.41,13.5,8a.13.13,0,0,1-.09,0h-1a.15.15,0,0,1-.09,0l-.73-.72c.31-.32.6-.62.9-.91a.31.31,0,0,1,.41,0C13.29,6.69,13.69,7.05,14.11,7.41Z"/><path d="M20.19,5.19a.89.89,0,1,1-.89-.89A.89.89,0,0,1,20.19,5.19Z"/><path d="M22.61,16.45v.87H20.39a.2.2,0,0,1-.13-.06l-.56-.81Z"/><path d="M18.16,8.05H14.11l.21-.22.5-.49a.47.47,0,0,1,.6-.1l.63.32a.37.37,0,0,0,.31,0l.41-.14a.72.72,0,0,1,.68.09Z"/><path d="M11.7,8.05H9.37c0-.17,0-.33,0-.49s0-.07.07-.09L10.19,7a.41.41,0,0,1,.54,0Z"/><path d="M21.78,8.05H19.92c.26-.22.49-.42.74-.6a.32.32,0,0,1,.41,0Z"/></svg>