<svg id="Layer_1" data-name="Layer 1" xmlns="http://www.w3.org/2000/svg" viewBox="0 0 32 32"><defs><style>.cls-1{fill:#ff0;}.cls-2{fill-rule:evenodd;}</style></defs><path class="cls-1" d="M27,11C27,17,16,32,16,32S5,17,5,11A11,11,0,0,1,27,11Z"/><path class="cls-2" d="M25.12,13v1.41H7.93V11.57l.53.91.41-2.77L9,8.77l0,.94L9.11,13l.39-1.76.49,1.6.24-1,.23,1.11.1-.87.18.91,0-.13a6.06,6.06,0,0,1,0-1.15c0-.25-.14-.84-.14-1.15,0-.12,0-.45.06-.81a6.47,6.47,0,0,1,.23-1.39C11,8.11,11,8,11,7.85s-.49-.41-.59-.62a2.87,2.87,0,0,1-.14-.69L10,6.1c0-.07-.29-.24-.33-.29a1.28,1.28,0,0,1-.27-.53,1.43,1.43,0,0,1,.06-.64,2.49,2.49,0,0,0,.08.64.76.76,0,0,0,.2.32,1.31,1.31,0,0,0,0-.19c0-.07-.06-.14-.08-.26a1.66,1.66,0,0,1,0-.82A.76.76,0,0,1,10,3.9s0,0-.08.11a1.6,1.6,0,0,0-.16.52,2.57,2.57,0,0,0,.09.72l.1-.08a.8.8,0,0,1,.26,0c.07,0,.12-.08.23-.29a1,1,0,0,1,.32-.37,1.28,1.28,0,0,0-.14.18,3.06,3.06,0,0,0-.18.4A2.25,2.25,0,0,0,10.94,5c.16-.07.73-.39.73-.39s-.55.47-.69.55a7.19,7.19,0,0,1-.79.24.27.27,0,0,0-.18.33,1.28,1.28,0,0,0,.42.59c.19.16.37.32.42.35s.15,0,.15-.09a2.43,2.43,0,0,1,0-.37c0-.11.06-.41.06-.41v.16a4.08,4.08,0,0,0,.07.52s0,.17.11.21a.81.81,0,0,1,.14.16.78.78,0,0,1,.27,0c.16,0,.26.09.29.06s0,0,0-.09,0-.1-.06-.36a2.26,2.26,0,0,1,0-.56A3.64,3.64,0,0,0,12,6.3a3.18,3.18,0,0,0,.12.33.33.33,0,0,0,.13-.07,3,3,0,0,1,.43-.37.25.25,0,0,0,.09-.28c0-.08-.18-.4-.27-.61a3.64,3.64,0,0,1-.18-.62s0,.11.11.26.39.67.42.77.16.18.19.16a.43.43,0,0,0,.12-.17,3.64,3.64,0,0,0,0-.71,9.61,9.61,0,0,0-.22-1,2.14,2.14,0,0,1,.2.42,5.08,5.08,0,0,1,.22,1.25.22.22,0,0,0,0-.08,2.24,2.24,0,0,0,0-.52,3.63,3.63,0,0,0-.15-.63.89.89,0,0,1,.24.47,1.58,1.58,0,0,1-.07,1c-.15.22-.89.71-1,.82s-.12.27-.09.33.1,0,.2,0,.26-.18.37-.24a1.28,1.28,0,0,1,.57-.17c.09.05,0,.25,0,.34a3.37,3.37,0,0,1-.36.62.7.7,0,0,1-.46.16l.2.21c.07.06.36.17.36.38a.34.34,0,0,1-.12.29s-.06.2-.16.2a.53.53,0,0,0-.31.06c-.13.08-.3.16-.3.16a.83.83,0,0,1,.08.27,3,3,0,0,1,0,.42v.07l.14.11a4.23,4.23,0,0,1,.63.14,7.54,7.54,0,0,0,1.5.09,17.53,17.53,0,0,1,1.81.06,8.74,8.74,0,0,1,3.16.86l0,0h0a3.57,3.57,0,0,1,1.09,1.16,5,5,0,0,1,.45-1.31c-.13.61-.26,1.08-.32,1.56a3.5,3.5,0,0,1,.17.55,2.93,2.93,0,0,1,.05.29l.09-.17.27-.51.23,1a2.36,2.36,0,0,0,.11-.44.36.36,0,0,1,0-.13l0-.1v-.05c0-.25,0-.49-.06-.74h.06c0,.16.07.27.1.36l.24-1.06.18.69a2,2,0,0,1,.12-.34c0,.25,0,.5,0,.76l.2.73.26-.89.07.13,0-.18c0-.05,0,0,0,0h0v.31l.18.33a3.84,3.84,0,0,1,.82-1.57c-.15.4-.29.73-.4,1.05l.45,1a1.74,1.74,0,0,0,.11-.9,2.42,2.42,0,0,1,.12.35,2.94,2.94,0,0,1,.05.51,1,1,0,0,1,0,.17l.12-.2a5.22,5.22,0,0,0-.06-2.25A2.84,2.84,0,0,1,25,12.44a4.41,4.41,0,0,0,.09.47h0l0,.15Z"/></svg>