<svg id="Layer_1" data-name="Layer 1" xmlns="http://www.w3.org/2000/svg" viewBox="0 0 32 32"><defs><style>.cls-1{fill:red;}.cls-2{fill:#fff;}</style></defs><path class="cls-1" d="M27,11C27,17,16,32,16,32S5,17,5,11A11,11,0,0,1,27,11Z"/><path class="cls-2" d="M20.61,15a1,1,0,0,0,.06-.23A1,1,0,0,1,20.61,15Zm.14-.57c0-.12,0-.24.05-.36C20.78,14.19,20.77,14.31,20.75,14.43Zm.08-.84,0,.48a3.87,3.87,0,0,0,0-.48v0Z"/><path class="cls-2" d="M20.83,13.59l0,.48a3.87,3.87,0,0,0,0-.48v0Zm0,.48c0,.12,0,.24-.05.36C20.77,14.31,20.79,14.19,20.8,14.07Zm-.13.7a1,1,0,0,1-.06.23A1,1,0,0,0,20.67,14.77Z"/><path class="cls-2" d="M20.83,13.47v.12l0,.48c0,.12,0,.24-.05.36a.52.52,0,0,0,0,.11l-.06.23a1,1,0,0,1-.06.23,5.31,5.31,0,0,1-10.4-1.16,5.85,5.85,0,0,1,.73-3A18.3,18.3,0,0,1,15,5.49l0,0c.17-.1.35-.19.53-.28a3,3,0,0,1,.16.56A3.81,3.81,0,0,0,16.9,7.91c.53.53,1.1,1,1.65,1.53a9,9,0,0,1,1.72,2,4,4,0,0,1,.25.51c0,.07.05.13.08.19a3.31,3.31,0,0,1,.12.42l0,.13a2.51,2.51,0,0,1,0,.27.19.19,0,0,1,0,.08A3.44,3.44,0,0,1,20.83,13.47Z"/><path class="cls-2" d="M21.61,6.7a2,2,0,0,1-1.84,1.22,2,2,0,0,1-1.92-2.6,5.49,5.49,0,0,1,1.69-2.39c.23-.2.38-.15.41.13a1.51,1.51,0,0,0,.52.9l.71.65A1.8,1.8,0,0,1,21.61,6.7Z"/></svg>