<svg id="Layer_1" data-name="Layer 1" xmlns="http://www.w3.org/2000/svg" viewBox="0 0 32 32"><defs><style>.cls-1{fill:#fff;}</style></defs><path class="cls-1" d="M27,11C27,17,16,32,16,32S5,17,5,11A11,11,0,0,1,27,11Z"/><path d="M8.77,16.2A1.55,1.55,0,0,1,9,16c.3-.23.61-.45.9-.7s.56-.41.61-.65a7.84,7.84,0,0,0,0-1.45c0-.91-.08-1.82-.1-2.73v-.1a4.14,4.14,0,0,1,1.06-2.6h0l.15-.17h0c.05-.08.09-.15.12-.12-.05.44-.18,1.33-.22,1.77A6.45,6.45,0,0,0,12,12.83c.23.47.5.5.92.28a2.58,2.58,0,0,0,1.52-2.3c0-.17.07-1.62.11-1.78v0a6.62,6.62,0,0,1,.53,1.23,3.14,3.14,0,0,1-.63,3,4.78,4.78,0,0,0,3.85-2.08.87.87,0,0,0,0-.74c-.41-.63-.87-1.22-1.33-1.8a10.19,10.19,0,0,1-.8-.91c.8-.08,1.91.92,2.63,1.66.11-1.12-.93-3-1.47-3.84h0A5.31,5.31,0,0,1,20,10.89a3.28,3.28,0,0,0,2.21-3c0-.41-.05-.82,0-1.23a9,9,0,0,1-.1-1.26,5.52,5.52,0,0,1,.77,1.11,9.77,9.77,0,0,1,.43,1.22,5.8,5.8,0,0,1-2.84,5,12.41,12.41,0,0,1-1.72.83c-1.24.5-2.52.9-3.77,1.39a7.44,7.44,0,0,0-1.6.85l-.09.07-.13.09a2.3,2.3,0,0,0-.27.22s0,0,0,0H8.72Z"/></svg>