<svg id="Layer_1" data-name="Layer 1" xmlns="http://www.w3.org/2000/svg" viewBox="0 0 32 32"><defs><style>.cls-1{fill:#ff0;}</style></defs><path class="cls-1" d="M27,11C27,17,16,32,16,32S5,17,5,11A11,11,0,0,1,27,11Z"/><path d="M16.53,18.2c.25-.1.28-.18.14-.41a2.1,2.1,0,0,0-.68-.68,3,3,0,0,0-.4-.2L15,16.66c.05-.35.24-.44.53-.35l.51.15a4.19,4.19,0,0,1,.7.26A3.08,3.08,0,0,0,20,16.5l.18-.12.21-.15,0-.11-.21,0h-.25a2,2,0,0,1-.34,0,1.35,1.35,0,0,1,.16-.29c.1-.14.23-.26.34-.39l.17-.21a.77.77,0,0,0,.05-.84v0l-.22.28-.07.09-.16.19-.06.07h0a.46.46,0,0,0-.07.07l-.17.15-.13.12-.16.13-.15.13-.09.07-.2.15a.36.36,0,0,1-.35,0c-.07-.06-.07-.23-.08-.34h0a1.39,1.39,0,0,1,.06-.19h0l0-.05v-.06l.06-.17v0c0-.07.05-.14.07-.21a.24.24,0,0,1,0-.08l0-.13a.83.83,0,0,1,0-.15.92.92,0,0,0,0-.16.07.07,0,0,0,0-.05.22.22,0,0,0,0-.08h0v0s0,0,0,0V14a1.8,1.8,0,0,0-.08-.21l0-.05a1.43,1.43,0,0,0-.15-.22c0,.08-.05.17-.07.24v.06a.83.83,0,0,0,0,.15.19.19,0,0,0,0,.07,2,2,0,0,1-.1.26.08.08,0,0,1,0,0,.14.14,0,0,1,0,.06s-.05.08-.07.13l0,0,0,.05,0,.07,0,.06-.1.12a1.34,1.34,0,0,1-.2.21.69.69,0,0,1-.13.11l0,0-.05,0-.07,0-.06,0-.06,0-.13.07-.07,0,0,0h-.05l-.06,0-.07,0-.07,0-.12,0-.07,0h-.07l-.12,0h-.11l-.34,0h-.06c-.49,0-.49,0-.68-.5a.08.08,0,0,0,0-.05c-.19-.26-.09-.47,0-.75a11.07,11.07,0,0,0,.49-1.73,1.8,1.8,0,0,1,.38-.81,2.64,2.64,0,0,0,0-.28c0-.23-.06-.47-.11-.7a3.5,3.5,0,0,0-.68-1.59,4.41,4.41,0,0,0-.07.54C15,11,14.9,12.09,14.8,13.22a2.09,2.09,0,0,1-.43,1.12c-.4-.19-.4-.19-.25-.59a7.32,7.32,0,0,0,.27-.83,1.47,1.47,0,0,0-.13-1.15,2.66,2.66,0,0,0-1.09,1,1.47,1.47,0,0,0,0,1.45,10.39,10.39,0,0,1-1.07.43,3.88,3.88,0,0,1-1.12.2,2.55,2.55,0,0,1-1.76-.61v4.25l1.13-.4c.38-.14.75-.3,1.13-.4.59-.14.59-.1.91.41a5.14,5.14,0,0,0,.82,1,.63.63,0,0,0,1.09-.36c.08-.35.12-.72.18-1.07,0-.09,0-.18.05-.33.07.13.1.18.13.25a1.62,1.62,0,0,0,1.2.76A1.44,1.44,0,0,0,16.53,18.2Z"/><path d="M20.21,16.81l0,0a3.91,3.91,0,0,1-2,.62,3.32,3.32,0,0,1-1.54-.39h0a2.66,2.66,0,0,1,.42.52.66.66,0,0,1,.11.58.71.71,0,0,1-.45.4,1.89,1.89,0,0,1-.67.12h-.24c0,.19,0,.37-.08.56L20.56,19c0-.17,0-.29-.06-.4C20.39,18,20.3,17.39,20.21,16.81Z"/><path d="M22.8,4.49a5.4,5.4,0,0,1-1.44,1.65,11.54,11.54,0,0,1-1.36.8.66.66,0,0,0-.4.68,60.32,60.32,0,0,0,.29,6.59l-.13.17-.12.16a2.81,2.81,0,0,1-.26.29,7,7,0,0,1-.58.51,1.54,1.54,0,0,0,.05-.17,6,6,0,0,0,.17-.64,1.44,1.44,0,0,0-.34-1.25l-.47-.57-.22.7c0,.11-.06.21-.08.31a4,4,0,0,1-.17.52,1.86,1.86,0,0,1-1.51,1A18.62,18.62,0,0,0,16.37,12c0-.16,0-.31,0-.47s-.06-.49-.11-.73a3.86,3.86,0,0,0-.95-2h0L15,8.53a3.9,3.9,0,0,0-1.3-.67c-.77-.23-1.56-.39-2.33-.6-.35-.09-.7-.21-1.12-.35a4.66,4.66,0,0,1,3.45-.23c.55.22,1.12.39,1.68.58s.63.12.72-.4c.17-1.14.32-2.27.54-3.4a1.88,1.88,0,0,1,.18-.5h2.67c0,.36,0,.81.07,1.27s0,.87.07,1.3a.45.45,0,0,0,.21.33.48.48,0,0,0,.37-.14c.48-.4.95-.82,1.43-1.23A.79.79,0,0,1,22.8,4.49Z"/></svg>