<svg id="Layer_1" data-name="Layer 1" xmlns="http://www.w3.org/2000/svg" viewBox="0 0 32 32"><defs><style>.cls-1{fill:#ff0;}</style></defs><path class="cls-1" d="M27,11C27,17,16,32,16,32S5,17,5,11A11,11,0,0,1,27,11Z"/><path d="M19.44,10.05l3,1.45L20.71,9.13a8,8,0,0,0-3.07-2.47L14.43,5.19l2.3,2.75A8,8,0,0,0,19.44,10.05Z"/><path d="M15.17,9.13,12,7.66l2.3,2.75A8,8,0,0,0,17,12.52L20,14,18.24,11.6A8,8,0,0,0,15.17,9.13Z"/><path d="M12.7,11.6,9.49,10.13l2.3,2.75A8,8,0,0,0,14.5,15l3.05,1.45-1.78-2.37A8,8,0,0,0,12.7,11.6Z"/></svg>