<svg id="Layer_1" data-name="Layer 1" xmlns="http://www.w3.org/2000/svg" viewBox="0 0 32 32"><defs><style>.cls-1{fill:#0071bd;}.cls-2{fill:#fff;}</style></defs><path class="cls-1" d="M27,11C27,17,16,32,16,32S5,17,5,11A11,11,0,0,1,27,11Z"/><path class="cls-2" d="M21.37,7.71a2.79,2.79,0,0,1-.71.22c-.34.06-.36.05-.41.4a5.32,5.32,0,0,0,0,.69c0,.34,0,.69-.05,1a1.56,1.56,0,0,1-.43.88,1.47,1.47,0,0,0-.36.87,2.45,2.45,0,0,1-.2.65,1.27,1.27,0,0,0-.08.86c.18.75.33,1.51.55,2.26a17.72,17.72,0,0,0,.62,1.67,2.5,2.5,0,0,0,.35.52,1.26,1.26,0,0,1,.23.6c-.14,0-.28,0-.41,0s-.08-.05-.11-.08l-.39-.59c-.05-.09-.1-.17-.14-.26a13.5,13.5,0,0,0-1.35-2.91,3.43,3.43,0,0,0-.23-.32c0,.15-.05.27-.08.38a6,6,0,0,0-.23.93c0,.56,0,1.11,0,1.67a1.33,1.33,0,0,0,.18.68,4.22,4.22,0,0,1,.16.5c-.18,0-.32,0-.47,0s-.06-.06-.08-.09c-.07-.2-.15-.4-.21-.6a2.42,2.42,0,0,1-.06-.46c0-.69,0-1.38,0-2.07a10.5,10.5,0,0,0-.2-1.12c0-.25,0-.51-.07-.73-.24,0-.47-.07-.68-.12s-.18-.11-.28-.15a.4.4,0,0,0-.22-.08,4.41,4.41,0,0,1-1.62-.11.64.64,0,0,0-.73.31q-.46.72-1,1.44a.8.8,0,0,0-.1.76,13.23,13.23,0,0,0,1.27,2.45,4.6,4.6,0,0,1,.31.53s0,0,0,0-.28,0-.42,0-.08-.05-.11-.09l-.38-.57c-.06-.1-.14-.19-.2-.28-.4-.72-.78-1.46-1.2-2.16a.61.61,0,0,1-.08-.71,4,4,0,0,0,.23-.69h0l-.08.05c-.18.16-.36.34-.55.48a1.38,1.38,0,0,0-.59,1c-.07.55-.17,1.11-.21,1.66a3.72,3.72,0,0,0,.09.81c0,.16.08.3.12.46l0,0c-.15,0-.33,0-.43,0s-.07-.26-.13-.38a2.52,2.52,0,0,1,0-1.44,5.42,5.42,0,0,0,0-1.84.49.49,0,0,1,.2-.57,2.43,2.43,0,0,0,.9-1.41.46.46,0,0,0-.06-.28c-.14-.24-.3-.47-.47-.73A1.5,1.5,0,0,1,9.6,13l.13-.17A1.54,1.54,0,0,0,10,11.47a2.25,2.25,0,0,1,1.88-2.65,6.3,6.3,0,0,1,1.89,0c.63.07,1.26.15,1.89.16a8.81,8.81,0,0,0,1.25-.12,2.28,2.28,0,0,1,.37,0A1.29,1.29,0,0,0,18.62,8a2.21,2.21,0,0,0,.14-.64c0-.21,0-.43,0-.66A.86.86,0,0,1,18,6.33a1.62,1.62,0,0,1-.27-.79.82.82,0,0,1,.65.18,4,4,0,0,1,.38.32c.18.17.18.17.37,0a1.22,1.22,0,0,0-.5-.48c-.59-.3-1.17-.58-1.75-.89a2.38,2.38,0,0,1-1.3-1.55s0-.05,0-.13c.16.08.3.14.42.21a1.06,1.06,0,0,1,.2.17c.21.19.33.15.41-.12a2.05,2.05,0,0,1,.22-.5.3.3,0,0,1,.32-.16,5,5,0,0,0-.11.76,2.3,2.3,0,0,0,.1.69.35.35,0,0,0,.26.19c.06,0,.15-.11.21-.19s.23-.4.37-.59a1.35,1.35,0,0,1,.34-.24,5.71,5.71,0,0,0-.21.74A1,1,0,0,0,18.5,5a6.43,6.43,0,0,1,.82.64c.13.11.22.22.4.17h0c.31,0,.32,0,.43-.29A1.38,1.38,0,0,0,20,4.07a3,3,0,0,0-.42-.35.65.65,0,0,1,.56.06c.14.09.26.2.39.3a1.06,1.06,0,0,0,.12.1c.07,0,.16.06.2,0A.19.19,0,0,0,20.9,4a5.24,5.24,0,0,0-.2-.64c-.07-.16-.16-.3-.26-.48a.44.44,0,0,1,.43.21,3.17,3.17,0,0,1,.21.41,1.58,1.58,0,0,0,.12.15.81.81,0,0,0,.1-.18,1.21,1.21,0,0,0,.08-.25h.07a2,2,0,0,1,.05.26,1.77,1.77,0,0,1-.57,1.76,3.71,3.71,0,0,0-.49.56.21.21,0,0,0,.07.36L20.77,6a1.2,1.2,0,0,1,.7-.39c.16,0,.19,0,.19.17a.93.93,0,0,1-.78.87l-.16,0,.16.1a4.34,4.34,0,0,1,.54.33A.37.37,0,0,1,21.37,7.71Z"/></svg>