<svg id="Layer_1" data-name="Layer 1" xmlns="http://www.w3.org/2000/svg" viewBox="0 0 32 32"><defs><style>.cls-1{fill:#51ff00;}</style></defs><path class="cls-1" d="M27,11C27,17,16,32,16,32S5,17,5,11A11,11,0,0,1,27,11Z"/><path d="M24.75,13.27a.5.5,0,0,0-.18-.29.26.26,0,0,0-.35,0l-.08.06-2.09-1.87a.3.3,0,0,1-.07-.15.82.82,0,0,0-.35-.64,2.61,2.61,0,0,1-.24-.23,42.87,42.87,0,0,1-4-4.27,5.8,5.8,0,0,1-1.06-1.73A.29.29,0,0,0,16,4a.34.34,0,0,0-.31.24,3.72,3.72,0,0,1-.31.67c-.46.62-.91,1.25-1.41,1.84a51.17,51.17,0,0,1-3.71,3.8.48.48,0,0,0-.18.27.89.89,0,0,1-.39.65,4.79,4.79,0,0,0-.41.36L7.85,13.09A.35.35,0,0,0,7.41,13a.39.39,0,0,0-.18.39c0,.23,0,.45,0,.68a.33.33,0,0,0,.31.36c.19,0,.31-.13.34-.35A.47.47,0,0,1,8,13.82c.46-.43.93-.84,1.4-1.26l.35-.32c0,.09,0,.14,0,.19l-.27,1.38c-.06.31.07.46.38.46H22.13q.47,0,.39-.45l-.06-.31-.24-1.23h0L24,13.81a.32.32,0,0,1,.13.26.33.33,0,1,0,.65,0A7.3,7.3,0,0,0,24.75,13.27ZM14,12.85H12.67V10.58H14Zm2.65,0H15.32V10.58h1.36Zm2.65,0H18V10.58h1.36Z"/></svg>