<svg id="Layer_1" data-name="Layer 1" xmlns="http://www.w3.org/2000/svg" viewBox="0 0 32 32"><defs><style>.cls-1{fill:#0071bd;}.cls-2{fill:#fff;}</style></defs><path class="cls-1" d="M27,11C27,17,16,32,16,32S5,17,5,11A11,11,0,0,1,27,11Z"/><path class="cls-2" d="M10.9,17.56h-.8a.56.56,0,0,1,0-.13c0-.13,0-.2-.16-.21s-.12,0-.12-.14l-.24-3a.5.5,0,0,1,.14-.4c.11-.1.21-.2.33-.29a1.27,1.27,0,0,0,.46-.93c0-.38,0-.76.05-1.15A2.15,2.15,0,0,1,10.8,13a10.22,10.22,0,0,1-.37,1,1.32,1.32,0,0,0-.09,1.23,11.76,11.76,0,0,1,.45,1.84C10.82,17.24,10.86,17.39,10.9,17.56Z"/><path class="cls-2" d="M20.38,17.43h-.65s-.08-.06-.11-.1a2.24,2.24,0,0,1-.39-1.18c-.14-.87-.29-1.74-.41-2.61,0-.34,0-.69,0-1a.56.56,0,0,1,.42-.69,1.41,1.41,0,0,0,.27-.14c0,.33.06.64.08.94,0,.47,0,.94,0,1.41,0,.63.11,1.27.17,1.91a2.66,2.66,0,0,1,0,.28,1.36,1.36,0,0,0,.36.9C20.23,17.21,20.29,17.31,20.38,17.43Z"/><path class="cls-2" d="M22.4,3.44a2.07,2.07,0,0,1-.87,1.74.28.28,0,0,0-.09.16,3.21,3.21,0,0,0-.07.43,3,3,0,0,0,0,.6A1.33,1.33,0,0,1,21,7.47c-.09.11-.29.11-.45.15h-.16v0l.57.11c-.1.38-.18.79-.3,1.18s-.33,1-.51,1.47a2.4,2.4,0,0,1-1.45,1.42.17.17,0,0,0-.13.2c0,.75.07,1.49.1,2.24,0,.41,0,.82,0,1.24s.14,1,.14,1.47a1.57,1.57,0,0,0,.57,1.11l.14.16H19a.68.68,0,0,1-.78-.62c-.09-.59-.15-1.19-.24-1.78s-.18-.89-.29-1.33-.3-1-.47-1.54a6.07,6.07,0,0,0-.31-.69.18.18,0,0,0-.13-.08l-2.89-.08a.23.23,0,0,0-.17.08c-.57.66-1.13,1.33-1.7,2a2,2,0,0,0-.44,1,1.43,1.43,0,0,0,.09.71,11.71,11.71,0,0,0,1,2.23s0,.07.07.15h-.41c-.16,0-.32,0-.48,0s-.13,0-.15-.11a.78.78,0,0,1-.05-.14c-.05-.12-.07-.27-.27-.18-.05-.29-.09-.56-.16-.82-.15-.49-.32-1-.49-1.46l-.16-.45a.79.79,0,0,1,.05-.67,5.07,5.07,0,0,0,.56-1.78,1.51,1.51,0,0,0-.09-.84c-.17-.41-.36-.81-.51-1.23s-.18-.62-.27-.92c0,0,0-.06,0-.09h-.05c0,.34-.07.67-.07,1a1.06,1.06,0,0,1-.19.71,3.26,3.26,0,0,1-.4-1.64A1.24,1.24,0,0,1,10,9l.57-.6a2.17,2.17,0,0,1,1.54-.7,10.77,10.77,0,0,1,2.26.23,5.19,5.19,0,0,0,1.42,0c.53,0,1.06,0,1.59-.06a4.06,4.06,0,0,0,.6,0,1,1,0,0,0,.87-1.18c0-.18-.06-.35-.08-.53,0-.33-.08-.66-.09-1,0-.12-.05-.19-.15-.21a1.37,1.37,0,0,0-.34-.07.74.74,0,0,1-.49-.24,1.85,1.85,0,0,1-.48-1,.22.22,0,0,1,0-.08c0-.26.07-.31.32-.24a2.39,2.39,0,0,1,1.29.73l.27.32a2.06,2.06,0,0,1,2,.13,1.16,1.16,0,0,1,.54-.85A1.78,1.78,0,0,1,22.4,3.44Z"/></svg>