<svg id="Layer_1" data-name="Layer 1" xmlns="http://www.w3.org/2000/svg" viewBox="0 0 32 32"><defs><style>.cls-1{fill:#ff0;}</style></defs><path class="cls-1" d="M27,11C27,17,16,32,16,32S5,17,5,11A11,11,0,0,1,27,11Z"/><path d="M24.41,11.81h0A1.73,1.73,0,0,0,22.92,11h0a1.72,1.72,0,0,0-1.48.86h0a1.74,1.74,0,0,0,0,1.71h0a1.71,1.71,0,0,0,1.48.85h0a1.72,1.72,0,0,0,1.49-.85h0A1.74,1.74,0,0,0,24.41,11.81Z"/><path d="M19.78,11.81A1.71,1.71,0,0,0,18.3,11h0a1.72,1.72,0,0,0-1.48.86h0a1.74,1.74,0,0,0,0,1.71h0a1.71,1.71,0,0,0,1.48.85h0a1.7,1.7,0,0,0,1.48-.85h0a1.69,1.69,0,0,0,0-1.71Z"/><path d="M15.16,11.81A1.71,1.71,0,0,0,13.68,11h0a1.71,1.71,0,0,0-1.48.86h0a1.69,1.69,0,0,0,0,1.71h0a1.7,1.7,0,0,0,1.48.85h0a1.7,1.7,0,0,0,1.48-.85h0a1.69,1.69,0,0,0,0-1.71Z"/><path d="M14.51,9.82a1.73,1.73,0,0,0,1.48.85h0a1.72,1.72,0,0,0,1.48-.85h0a1.69,1.69,0,0,0,0-1.71h0A1.71,1.71,0,0,0,16,7.25h0a1.72,1.72,0,0,0-1.48.86h0a1.69,1.69,0,0,0,0,1.71Z"/><path d="M19.13,9.82a1.73,1.73,0,0,0,1.48.85h0a1.72,1.72,0,0,0,1.48-.85h0a1.69,1.69,0,0,0,0-1.71h0a1.71,1.71,0,0,0-1.48-.86h0a1.72,1.72,0,0,0-1.48.86h0a1.74,1.74,0,0,0,0,1.71Z"/><path d="M9.89,9.82a1.72,1.72,0,0,0,1.48.85h0a1.72,1.72,0,0,0,1.48-.85h0a1.69,1.69,0,0,0,0-1.71h0a1.71,1.71,0,0,0-1.48-.86h0a1.71,1.71,0,0,0-1.48.86h0a1.69,1.69,0,0,0,0,1.71Z"/><path d="M10.54,11.81A1.72,1.72,0,0,0,9.06,11h0a1.71,1.71,0,0,0-1.48.86h0a1.69,1.69,0,0,0,0,1.71h0a1.7,1.7,0,0,0,1.48.85h0a1.71,1.71,0,0,0,1.48-.85h0a1.69,1.69,0,0,0,0-1.71Z"/></svg>