<svg id="Layer_1" data-name="Layer 1" xmlns="http://www.w3.org/2000/svg" viewBox="0 0 32 32"><defs><style>.cls-1{fill:#0071bd;}.cls-2{fill:#fff;}</style></defs><path class="cls-1" d="M27,11C27,17,16,32,16,32S5,17,5,11A11,11,0,0,1,27,11Z"/><path class="cls-2" d="M19.35,5.93a1.27,1.27,0,0,0-.15,1.54c.24.43.55.82.81,1.24a14.07,14.07,0,0,1,1,1.68A3.06,3.06,0,0,1,20,14.31a8.47,8.47,0,0,1-4,1.89c-.18,0-.26.1-.28.26s0,.23,0,.35h0a.29.29,0,0,0,.19.28l1.9.66.75.26a.26.26,0,0,1-.09.09.85.85,0,0,1-.36.12h0a15.72,15.72,0,0,1-2.76,0c-.38,0-.46-.11-.36-.48a2.73,2.73,0,0,0,0-1.5,6.76,6.76,0,0,1-4.1-2.51,4.35,4.35,0,0,1-.34-.41c-.11-.15-.2-.31,0-.48-.38-.55-.38-.55-.21-.8-.11-.22-.49-.38-.17-.71l-.3-.45.05-.05.29.13a6.74,6.74,0,0,0,2.48.75,2.35,2.35,0,0,0,1.76-.46,4.29,4.29,0,0,1,3-1c.8,0,.93-.2.61-.95S17.43,8,17.18,7.23A4.47,4.47,0,0,1,17,5a2,2,0,0,1,2.7-1.53,1.17,1.17,0,0,1,.74.8.36.36,0,0,0,.16.22c.43.25.88.48,1.31.73l.07,0a.25.25,0,0,1-.15.46h0a10.47,10.47,0,0,1-1.12-.19A1.43,1.43,0,0,0,19.35,5.93Z"/></svg>