<svg id="Layer_1" data-name="Layer 1" xmlns="http://www.w3.org/2000/svg" viewBox="0 0 32 32"><defs><style>.cls-1{fill:#51ff00;}</style></defs><path class="cls-1" d="M27,11C27,17,16,32,16,32S5,17,5,11A11,11,0,0,1,27,11Z"/><path d="M9.49,14.39,9,13.25a3.9,3.9,0,0,1,.16-3.49v0c-.1,1.07-.39.38,0,1.45.08-.67.13-.18.25-.84s.28-.73.75-1.3c-.21,1.33-.48.9,0,2.22h.09c.12-1.06.24-.37.37-1.43h0s.25.08.37,1h.06c.15-1.43.3-1.1.45-2.53h0c.06,1.17.11.58.17,1.76.44-.52.34-.43.61-.56-.09.94-.41.88.05,1.81a6.47,6.47,0,0,0,.6-3.16,6.13,6.13,0,0,1,.42,2.57c.12-.65.32-.84.43-1.41h0l0,1.76H14A8.2,8.2,0,0,1,15.08,7.8a10.24,10.24,0,0,0-.17,3.49c.51-.83,1-1.07,1.09-2,0,0,0-.21,0-.21.25.36.21.15.36.73A11.21,11.21,0,0,1,16.47,11a2.8,2.8,0,0,0,.09-2.35,3,3,0,0,1,.67,1.68,8.57,8.57,0,0,1,.92-3.06A7.89,7.89,0,0,0,17.72,11c.38-.57.68-.58.64-1.25a1.5,1.5,0,0,1,.29,1.22l.09,0a8.52,8.52,0,0,0,.26-.86c.06-.3.08,0,.08-.34S19,9.12,19,8.81h.09c.13.59.26.6.39,1.17.05-.34.09-.14.17-.51A4.72,4.72,0,0,1,20,8.37c0,.58,0,1.17,0,1.76s.09.58.14,1.16h.13c.09-.29.44-1.94.52-2.24s-.11,1.28-.07.95,0-.63.07-.95h0l.06,1.51s.06-.2.09-.33A4.81,4.81,0,0,1,22.22,7.9c-.55,1.3-1,2-.83,3.47a2,2,0,0,0,1.06-2c.05.19.13.24.17.43s.05.42.07.63,0,.41,0,.62a6.08,6.08,0,0,0,.07-3.46,3.28,3.28,0,0,1,.62,1.59c.09.54.14.5.21,1h0A8,8,0,0,1,23.08,13l-.52,1.36"/></svg>