<svg id="Layer_1" data-name="Layer 1" xmlns="http://www.w3.org/2000/svg" viewBox="0 0 32 32"><defs><style>.cls-1{fill:#51ff00;}</style></defs><path class="cls-1" d="M27,11C27,17,16,32,16,32S5,17,5,11A11,11,0,0,1,27,11Z"/><path d="M20.89,20.42h-.24l-3-8c2.38-3.63.56-6-.83-9.16H15c-1.74,3.73-3.25,5.59-.8,9.21l-2.88,7.71H11.1a.4.4,0,1,0,0,.79h.5a.4.4,0,0,0,.37-.26L14.87,13h.65l.1,1.19H16L16.19,13H17l3,8a.4.4,0,0,0,.37.26h.51a.4.4,0,0,0,0-.79Z"/><rect x="15.56" y="14.35" width="0.5" height="0.42"/></svg>