<svg id="Layer_1" data-name="Layer 1" xmlns="http://www.w3.org/2000/svg" viewBox="0 0 32 32"><defs><style>.cls-1{fill:#51ff00;}</style></defs><path class="cls-1" d="M27,11C27,17,16,32,16,32S5,17,5,11A11,11,0,0,1,27,11Z"/><path d="M11.55,15.61H9.81a.49.49,0,0,1-.28-.51c0-2.62,0-5.23,0-7.85a.5.5,0,0,1,.23-.45l.89-.67a.41.41,0,0,1,.55,0,.69.69,0,0,1,.36.71Q11.55,11.22,11.55,15.61Z"/><path d="M22.45,7.05v8.28a.64.64,0,0,1-.11.16.52.52,0,0,1-.17.12H20.43V6.54a.24.24,0,0,1,.11-.23,3.21,3.21,0,0,0,.3-.21.35.35,0,0,1,.44,0c.35.25.69.51,1,.77A1.39,1.39,0,0,1,22.45,7.05Z"/><rect x="12.32" y="7.8" width="3.29" height="6.8"/><rect x="16.38" y="7.79" width="3.29" height="6.8"/></svg>