<svg id="Layer_1" data-name="Layer 1" xmlns="http://www.w3.org/2000/svg" viewBox="0 0 32 32"><defs><style>.cls-1{fill:#0071bd;}.cls-2{fill:#fff;}</style></defs><path class="cls-1" d="M27,11C27,17,16,32,16,32S5,17,5,11A11,11,0,0,1,27,11Z"/><path class="cls-2" d="M23.15,6.55a.64.64,0,0,0,0,.54A.49.49,0,0,1,23,7.8a.74.74,0,0,0-.31.69.44.44,0,0,1-.2.42,1.58,1.58,0,0,0-.57.86c-.21.7-.42,1.4-.66,2.09a2.67,2.67,0,0,1-.37.63c-.22.3-.48.59-.71.89a1.5,1.5,0,0,0-.19.32.32.32,0,0,0,.11.49,1.35,1.35,0,0,0,.26.15,4.77,4.77,0,0,0,1.43.36,9.07,9.07,0,0,1,.91.14c.06,0,.11.07.17.11a1,1,0,0,1-.17.13.74.74,0,0,1-.21.07.36.36,0,0,0,0,.1c.06.21,0,.27-.23.29a6.61,6.61,0,0,0-.88.11c-.21,0-.4.14-.61.17-.51.07-1,.13-1.53.17s-1,.08-1.54.09a5,5,0,0,1-2.09-.46,5.29,5.29,0,0,1-1.54-.95A3.91,3.91,0,0,0,13,14.05,9.17,9.17,0,0,0,11,13.39a3.35,3.35,0,0,0-.63-.05,4,4,0,0,1-.85-.08,4.77,4.77,0,0,0-.66-.1l-.22,0v-.06l1.18-.79a.63.63,0,0,1,.58,0,1.07,1.07,0,0,1,.22.1,3.72,3.72,0,0,0,1.38.52,13.37,13.37,0,0,0,2.1.24l.35,0-.16-.31c-.17-.3-.34-.61-.52-.9a1.1,1.1,0,0,1-.12-.92,1.05,1.05,0,0,0,0-.5,1.12,1.12,0,0,1,.06-.51,13.21,13.21,0,0,1,1.1-2.46c0-.07.09-.2.19-.14s.06.17.06.26a2.06,2.06,0,0,0,0,.26l.14-.19a1.11,1.11,0,0,1,.16-.11.64.64,0,0,1,.08.2c0,.14,0,.29,0,.45L15.5,8c.05,0,.12-.09.15-.08a.24.24,0,0,1,.11.15c0,.14,0,.29,0,.46l.19-.1c.1-.06.16,0,.18.08s0,.14,0,.21,0,.1,0,.11c.18.07.19.23.2.38a.34.34,0,0,0,.19.31.31.31,0,0,1,.11.21.39.39,0,0,0,.16.3,1.75,1.75,0,0,1,.26.29c.17-.22.34-.48.54-.71.38-.43.77-.86,1.18-1.27s.88-.78,1.27-1.21.93-1.11,1.39-1.66c.23-.27.45-.55.67-.82a1.14,1.14,0,0,1,.11-.11l0,0-.2.61h0c.12-.13.23-.27.36-.39a1,1,0,0,1,.21-.11.63.63,0,0,1,0,.24c-.05.15-.12.3-.17.47l.32-.22a.47.47,0,0,1,.17,0,.86.86,0,0,1,0,.17c-.06.12-.12.23-.2.36h.38c.18,0,.23.11.18.28S23.22,6.36,23.15,6.55Z"/></svg>