<svg id="Layer_1" data-name="Layer 1" xmlns="http://www.w3.org/2000/svg" viewBox="0 0 32 32"><defs><style>.cls-1{fill:#ff0;}</style></defs><path class="cls-1" d="M27,11C27,17,16,32,16,32S5,17,5,11A11,11,0,0,1,27,11Z"/><path d="M22.82,13.69c-.14-.79-.31-1.58-.46-2.38a1.94,1.94,0,0,0-1-1.3.38.38,0,0,1-.21-.33q-.11-.94-.24-1.89a1.34,1.34,0,0,0-.61-.9,2.69,2.69,0,0,0-3.17.2,1.17,1.17,0,0,0-.42,1,.75.75,0,0,1,0,.15h0A6.23,6.23,0,0,0,16,8.17a6.32,6.32,0,0,0-.73.09,2.58,2.58,0,0,0,0-.48A1.26,1.26,0,0,0,14.68,7a2.7,2.7,0,0,0-3-.09A1.43,1.43,0,0,0,11,8c0,.6-.15,1.2-.22,1.8a.22.22,0,0,1-.14.17,2,2,0,0,0-1,1.22c-.1.37-.15.75-.23,1.13L9.08,14.2a0,0,0,0,1,0,0v.41a3.53,3.53,0,0,0,.27.73,2.5,2.5,0,0,0,1.52,1.16,3.5,3.5,0,0,0,3-.3A2.13,2.13,0,0,0,15,14.73a3.42,3.42,0,0,0,0-.45v-.91a2.58,2.58,0,0,0,2,0v.18c0,.38,0,.77,0,1.14a2,2,0,0,0,.89,1.37,3.56,3.56,0,0,0,4.11,0,2,2,0,0,0,.87-1.43A3.33,3.33,0,0,0,22.82,13.69Zm-9.18,1.67a2.55,2.55,0,0,1-1.63.53,2.47,2.47,0,0,1-1.64-.57,1.11,1.11,0,0,1,.05-1.85A2.61,2.61,0,0,1,12.29,13a2.45,2.45,0,0,1,1.37.53A1.12,1.12,0,0,1,13.64,15.36Zm3-2.74a1,1,0,0,1-.67.23,1,1,0,0,1-.66-.2.48.48,0,0,1,0-.81,1.14,1.14,0,0,1,1.35,0A.47.47,0,0,1,16.68,12.62Zm5.42,1.89a1.25,1.25,0,0,1-.53.87,2.65,2.65,0,0,1-1.64.51,2.46,2.46,0,0,1-1.67-.62,1.08,1.08,0,0,1,0-1.72A2.37,2.37,0,0,1,19.7,13a2.62,2.62,0,0,1,1.88.51A1.14,1.14,0,0,1,22.1,14.51Z"/><path d="M19.65,6.15l-.34-.05a3.06,3.06,0,0,0-1.61.2c-.24.09-.31,0-.31-.2a1.49,1.49,0,0,1,0-.56A1,1,0,0,1,18.19,5c.14,0,.29,0,.39-.07a1.37,1.37,0,0,1,1,.44,1,1,0,0,1,.19.68C19.82,6.12,19.74,6.16,19.65,6.15Z"/><path d="M14.62,5.92a2.45,2.45,0,0,1,0,.27c0,.15-.08.18-.23.14s-.48-.16-.73-.21a2.81,2.81,0,0,0-1.19,0c-.24,0-.29,0-.26-.25a1.09,1.09,0,0,1,1.24-1,1.48,1.48,0,0,1,1,.42A.7.7,0,0,1,14.62,5.92Z"/></svg>