<svg id="Layer_1" data-name="Layer 1" xmlns="http://www.w3.org/2000/svg" viewBox="0 0 32 32"><defs><style>.cls-1{fill:#ff0;}</style></defs><path class="cls-1" d="M27,11C27,17,16,32,16,32S5,17,5,11A11,11,0,0,1,27,11Z"/><path d="M17.35,10.57c-1.6-.08-1.79.54-.61,1.22s1.21,1,1.21,1-1.7-.75-2.37-.29A4.29,4.29,0,0,1,13,13.77c-1.29.07-2.38.9-4.11,1V10.11a22.45,22.45,0,0,0,2.91-1.78,7,7,0,0,0,2-.55c.47-.34,1.83.17,2.7,1.06s2.35.33.37-2.74a3.52,3.52,0,0,1,1.45,3.17s-.26.52-.64.54c0,0,1.06.25,1.17.95S19,10.64,17.35,10.57Z"/><path d="M20.38,11.91A1.61,1.61,0,0,0,20,11a.28.28,0,0,0-.38,0,.27.27,0,0,0,0,.37,1.11,1.11,0,0,1,.26.62,1.1,1.1,0,0,1-.42.95.26.26,0,0,0-.05.37.27.27,0,0,0,.37.05A1.66,1.66,0,0,0,20.38,11.91Z"/><path d="M21.75,11.8A2.92,2.92,0,0,0,21,10.11a.26.26,0,0,0-.37,0,.27.27,0,0,0,0,.37,2.4,2.4,0,0,1,.58,1.4,2.43,2.43,0,0,1-1,2.15.27.27,0,0,0,.16.48.25.25,0,0,0,.16-.06A3,3,0,0,0,21.75,11.8Z"/><path d="M23.05,11.7a4.22,4.22,0,0,0-1-2.44.27.27,0,0,0-.37,0,.26.26,0,0,0,0,.37,3.83,3.83,0,0,1,.89,2.14,3.78,3.78,0,0,1-1.48,3.31.27.27,0,0,0-.05.37.28.28,0,0,0,.21.1.3.3,0,0,0,.16,0A4.3,4.3,0,0,0,23.05,11.7Z"/></svg>