<svg id="Layer_1" data-name="Layer 1" xmlns="http://www.w3.org/2000/svg" viewBox="0 0 32 32"><defs><style>.cls-1{fill:#f89431;}</style></defs><path class="cls-1" d="M27,11C27,17,16,32,16,32S5,17,5,11A11,11,0,0,1,27,11Z"/><path d="M22.53,13.9l-1.11-.77a.44.44,0,0,0-.23-.11l-.38,0h-.48l-3-1.94h4.36a.69.69,0,0,0,.67-.47.57.57,0,0,0-.25-.65L21,9.18a.37.37,0,0,0-.24-.11,2,2,0,0,0-.37,0h-1A2.35,2.35,0,0,0,17,6.84H14.8V2.67h-2V19.21h2V15h7.31a.69.69,0,0,0,.67-.47A.58.58,0,0,0,22.53,13.9Zm-6.16-3.15.21-1.41H17l0,1.41Zm1.15,0-.11-1.41h.42l.26,1.41Zm1.14,0-.41-1.41h.41l.57,1.41Zm.74-1.41h1a1.25,1.25,0,0,1,.36,0l1.18.81a.27.27,0,0,1,.13.31.39.39,0,0,1-.39.25H19.81l-.73-1.41Zm-4.6-2.2H17A2.06,2.06,0,0,1,19.09,9H14.8Zm1.36,2.2-.37,1.41h-.57l.52-1.41Zm-1.36,0,.3,0h.22l-.52,1.08Zm2.12,1.7L20,13H17.72L14.8,11.25v-.19Zm1.62,2.24h.55l.15.6-.68-.4ZM14.8,11.49,17.32,13H15.55l-.38,0a.44.44,0,0,0-.23.11l-.14.1Zm0,3.22V13.6l.39-.27a2.05,2.05,0,0,1,.36,0h.24l-.91,1.41Zm1.6,0h-.75l.69-1.41h.55Zm.76,0,.28-1.41h.39l.15.09-.06,1.32Zm1.52,0-.09-1,.72.43.12.53Zm1.9,0-.5-.3-.43-1.11h.54L21,14.71Zm1.9-.25a.38.38,0,0,1-.38.25h-.38l-1-1.41h.06a2.05,2.05,0,0,1,.36,0l1.18.82A.26.26,0,0,1,22.48,14.46Z"/></svg>