<svg id="Layer_1" data-name="Layer 1" xmlns="http://www.w3.org/2000/svg" viewBox="0 0 32 32"><defs><style>.cls-1{fill:red;}.cls-2{fill:#fff;}</style></defs><path class="cls-1" d="M27,11C27,17,16,32,16,32S5,17,5,11A11,11,0,0,1,27,11Z"/><path class="cls-2" d="M22.05,13.53,19.66,9.4,17.74,6.08A1.91,1.91,0,0,0,16,5a1.93,1.93,0,0,0-1.72,1L12,10l-2,3.51a2,2,0,0,0,1.72,3H20.3a2,2,0,0,0,1.38-.51A2,2,0,0,0,22.05,13.53Zm-6.16-6h.2a.53.53,0,0,1,.56.59c0,.59,0,1.17-.07,1.76l-.06,1.81a.53.53,0,0,1-.41.52.51.51,0,0,1-.58-.28.63.63,0,0,1-.06-.27c-.05-1.18-.09-2.37-.13-3.56A.52.52,0,0,1,15.89,7.53ZM16,14.75a.67.67,0,1,1,.66-.67A.66.66,0,0,1,16,14.75Z"/></svg>