<svg id="Layer_1" data-name="Layer 1" xmlns="http://www.w3.org/2000/svg" viewBox="0 0 32 32"><defs><style>.cls-1{fill:#0071bd;}.cls-2{fill:#fff;}</style></defs><path class="cls-1" d="M27,11C27,17,16,32,16,32S5,17,5,11A11,11,0,0,1,27,11Z"/><path class="cls-2" d="M24,9.6c-.23,0-.47-.06-.7-.09a1,1,0,0,1-.84-.64.94.94,0,0,1,.23-1l.36-.4c-.42-.4-.89-.24-1.36-.16V6.46H21.6l-.11,0a1.51,1.51,0,0,0-.88.72.4.4,0,0,1-.47.26h0a1.13,1.13,0,0,1-.85-.25,2.86,2.86,0,0,0-1.74-.59c-1,0-2-.07-3-.06A7.62,7.62,0,0,0,11.89,7,3.59,3.59,0,0,0,9.75,9c0,.08-.15.13-.24.2a3.86,3.86,0,0,0,0-.59.53.53,0,0,0-.68-.44.94.94,0,0,0-.73.95,1.48,1.48,0,0,0,0,.2L8,9.2c-.15-.09-.27-.08-.34,0s0,.24.13.34a1.41,1.41,0,0,0,1.35.17l.58-.2c0,.9,0,1.76,0,2.63a.19.19,0,0,1-.11.14,1.44,1.44,0,0,0-.74.9A2.47,2.47,0,0,0,9,14.75s0,.07.06.07h.81a1.15,1.15,0,0,1,0-1.15,1.57,1.57,0,0,1,1-.55,1.8,1.8,0,0,1,.05.19,2.12,2.12,0,0,0,.66,1.14.65.65,0,0,1,.33.68l0,0h.87l.12,0a1.21,1.21,0,0,1,0-.19.52.52,0,0,0-.19-.49,1.72,1.72,0,0,1-.36-.49.8.8,0,0,1,.17-1,.5.5,0,0,0,.21-.46h0l.22.11.11,0,.11.05a3.9,3.9,0,0,0,.81.17h.12a9.27,9.27,0,0,0,1.66-.05,8,8,0,0,0-.08.83,6.23,6.23,0,0,0,.09,1,.35.35,0,0,0,.21.23,7.09,7.09,0,0,0,.8,0,2.55,2.55,0,0,1,0-1.92c0-.05.1-.08.14-.13a.44.44,0,0,1,.1.15,2.41,2.41,0,0,0,.79,1.39.47.47,0,0,1,.22.47l0,0h1.08l0,0a.48.48,0,0,1-.11-.09,3.1,3.1,0,0,1-.83-1.39,1.26,1.26,0,0,1,1-1.71,8.22,8.22,0,0,1,2.41-.35,6.75,6.75,0,0,0,1.19-.1,2.51,2.51,0,0,0,1.4-.71C24.55,10.09,24.44,9.72,24,9.6ZM9,9.21a.22.22,0,0,1-.32.06A.34.34,0,0,1,8.53,9a.84.84,0,0,1,.19-.36A.28.28,0,0,1,9,8.58a.13.13,0,0,1,.07.06.39.39,0,0,1,0,.35A1.51,1.51,0,0,1,9,9.21Z"/></svg>