<svg id="Layer_1" data-name="Layer 1" xmlns="http://www.w3.org/2000/svg" viewBox="0 0 32 32"><defs><style>.cls-1{fill:#ff0;}</style></defs><path class="cls-1" d="M27,11C27,17,16,32,16,32S5,17,5,11A11,11,0,0,1,27,11Z"/><path d="M22.1,11.16a4.18,4.18,0,0,0-4.75-3.43A11.36,11.36,0,0,0,16.07,8a3.64,3.64,0,0,1,2-2.84c-.11-.26-.22-.52-.33-.8a4.21,4.21,0,0,0-2.27,3.51l-.14,0a4.23,4.23,0,0,0-2.26-.08,4,4,0,0,0-3.26,4.52,8,8,0,0,0,2.46,4.93,3.44,3.44,0,0,0,2.91,1.09,10.23,10.23,0,0,1,1.75,0,3.16,3.16,0,0,0,2.24-.69,8.15,8.15,0,0,0,2.41-3.33A5.71,5.71,0,0,0,22.1,11.16Z"/><path d="M13.21,7.19a3,3,0,0,0,1.65,0,.51.51,0,0,0,.4-.54,2.15,2.15,0,0,0-.47-1.46,3.17,3.17,0,0,0-1.92-1.09,4.33,4.33,0,0,1-2.2-.85l-.07,0c.06.4.09.81.18,1.2A3.32,3.32,0,0,0,13.21,7.19Z"/></svg>