<svg id="Layer_1" data-name="Layer 1" xmlns="http://www.w3.org/2000/svg" viewBox="0 0 32 32"><defs><style>.cls-1{fill:#51ff00;}</style></defs><path class="cls-1" d="M27,11C27,17,16,32,16,32S5,17,5,11A11,11,0,0,1,27,11Z"/><path d="M21.16,11.92a1.6,1.6,0,1,0,1.6,1.6A1.59,1.59,0,0,0,21.16,11.92Zm0,2.22a.63.63,0,0,1-.62-.62.62.62,0,1,1,1.23,0A.62.62,0,0,1,21.16,14.14Z"/><path d="M10.49,11.92a1.6,1.6,0,1,0,1.6,1.6A1.6,1.6,0,0,0,10.49,11.92Zm0,2.22a.61.61,0,0,1-.61-.62.61.61,0,1,1,1.22,0A.61.61,0,0,1,10.49,14.14Z"/><path d="M24.32,12.06a.74.74,0,0,0,0-.26l-.11-1.61s0-.11,0-.15h0a1,1,0,0,0-1.05-.83H21.24A.25.25,0,0,1,21,9.1L19.56,7.16a1.53,1.53,0,0,0-1.32-.66H16.45a1.5,1.5,0,0,0-1.58,1.57V9.21H8.62a1.21,1.21,0,0,0-.52.16,1,1,0,0,0-.44.65v2.52a.6.6,0,0,0,.35.33c.18.06.21,0,.27-.13A2.35,2.35,0,0,1,11,11.23a2.32,2.32,0,0,1,1.76,1.55c0,.05.06.12.09.12h6c.11,0,.14-.06.17-.15a2.34,2.34,0,0,1,3.87-.88,2.4,2.4,0,0,1,.6,1,.77.77,0,0,0,.87-.61.89.89,0,0,0,0-.22h0ZM15.87,9.2c0-.43,0-.85,0-1.27a.46.46,0,0,1,.48-.44h2a.48.48,0,0,1,.4.19l1.1,1.47,0,0Z"/></svg>