<svg id="Layer_1" data-name="Layer 1" xmlns="http://www.w3.org/2000/svg" viewBox="0 0 32 32"><defs><style>.cls-1{fill:#0071bd;}.cls-2{fill:#fff;}</style></defs><path class="cls-1" d="M27,11C27,17,16,32,16,32S5,17,5,11A11,11,0,0,1,27,11Z"/><path class="cls-2" d="M21.11,7.75c-.68.61-1.35,1.23-2,1.89a20.91,20.91,0,0,0-1.31,1.64,2.2,2.2,0,0,0-.23.46c-.14.35-.13.35.18.64.07-.07.15-.13.21-.2a4.8,4.8,0,0,1,2.8-1.41c.22,0,.34.08.25.28a12.49,12.49,0,0,1-.63,1.27,1.4,1.4,0,0,1-1,.65,6.05,6.05,0,0,0-.73.2.75.75,0,0,0-.47.52c-.1.27-.24.52-.33.78a3.92,3.92,0,0,0-.32,1.08,8.76,8.76,0,0,1-.27,1.69.94.94,0,0,0,0,.44.79.79,0,0,1-.24.79,1.26,1.26,0,0,0-.24.36.92.92,0,0,1-.82.47.89.89,0,0,1-.8-.48,1.56,1.56,0,0,0-.23-.34.8.8,0,0,1-.25-.81,1,1,0,0,0,0-.42,6.58,6.58,0,0,1-.28-1.71,2.52,2.52,0,0,0-.19-.8,9.26,9.26,0,0,0-.51-1.16,1.06,1.06,0,0,0-.43-.41,1.78,1.78,0,0,0-.61-.17,1.65,1.65,0,0,1-1.25-.91c-.18-.32-.32-.66-.47-1s0-.37.27-.32a4.85,4.85,0,0,1,2.84,1.48l.13.11c.35-.16.28-.4.18-.65a5.92,5.92,0,0,0-1.26-1.79c-.73-.73-1.47-1.47-2.24-2.16A1.52,1.52,0,0,1,10.59,6l.28-.44c.18-.3.37-.59.53-.9a4.64,4.64,0,0,0,.52-2,2.09,2.09,0,0,0,0-.25l.07,0c.06.3.13.59.16.88a3.66,3.66,0,0,1-.4,2.15c-.13.26-.25.52-.4.77a.77.77,0,0,0,.26,1.21c.45.33.9.66,1.34,1a14.51,14.51,0,0,1,1.39,1.21,6.89,6.89,0,0,1,.8,1.12c.18.28.32.58.49.87a.17.17,0,0,0,.13.07h.47a.16.16,0,0,0,.12-.08c.18-.33.33-.69.54-1a8.66,8.66,0,0,1,1.75-1.91c.39-.32.81-.61,1.21-.92l.58-.43a.75.75,0,0,0,.21-1.15,5.36,5.36,0,0,1-.8-2A4.1,4.1,0,0,1,20,2.32a9.78,9.78,0,0,0,.19,1.26,7.41,7.41,0,0,0,.53,1.27c.2.4.46.76.68,1.15A1.47,1.47,0,0,1,21.11,7.75Z"/></svg>