<svg id="Layer_1" data-name="Layer 1" xmlns="http://www.w3.org/2000/svg" viewBox="0 0 32 32"><defs><style>.cls-1{fill:#f89431;}</style></defs><path class="cls-1" d="M27,11C27,17,16,32,16,32S5,17,5,11A11,11,0,0,1,27,11Z"/><path d="M20.8,14.71H18.32L20,13.59a.35.35,0,0,0,.13-.38.33.33,0,0,0-.32-.24h-2l-.17-1H20.8a.21.21,0,0,0,0-.42H17.55l-.28-1.67a.35.35,0,0,0-.4-.28.34.34,0,0,0-.27.4l.26,1.55h-1.6c-.06-1.52-.12-3.18-.17-4a1,1,0,0,1,.09-.5c.37-.72.83-1.52,1.07-1.93l.15-.25-1.21-.74L15,4.35l-.41.76V5c0-.47-.1-1.1-.09-1.22l.05-.34H13L13,5.28c-.26-.5-.53-1-.69-1.37l-.18-.38L11,4.72l.14.19s.11.23.17.36l.13.28C12,6.48,12.48,7.43,13,8.32a.75.75,0,0,1,.08.41c-.07.94-.14,3.2-.21,5.38s-.13,2.88-.18,3.76l0,.32h2.95l0-.31c-.05-.85-.11-1.25-.17-2.74H20.8a.22.22,0,0,0,0-.43Zm-3.66,0H15.38L15.28,12h1.66l.24,1.42a.34.34,0,0,0,.33.28h1.16l-1.45,1Z"/></svg>