<svg id="Layer_1" data-name="Layer 1" xmlns="http://www.w3.org/2000/svg" viewBox="0 0 32 32"><defs><style>.cls-1{fill:#ff0;}</style></defs><path class="cls-1" d="M27,11C27,17,16,32,16,32S5,17,5,11A11,11,0,0,1,27,11Z"/><path d="M20,9.45a9.61,9.61,0,0,1-1.51.55.93.93,0,0,0,.24-.55,1.4,1.4,0,0,1,.13-.34c.08-.15.17-.29.25-.43a1.57,1.57,0,0,1,.4.24c.24.22.36.2.22,0s.53-.37.35-.61.24-.91.12-.93.06-.43,0-.64A1.13,1.13,0,0,1,20,6.14a1.12,1.12,0,0,0-.34-.65.13.13,0,0,0-.07-.06.54.54,0,0,0-.73.1A1.76,1.76,0,0,0,18.6,6c-.09.21-.21.41-.3.58-.18-.09-.21-.2-.32-.26l-.22.25c0-.14,0-.23,0-.41l-.17.24c-.05,0-.14-.24-.18-.24A1,1,0,0,0,16.36,7a2.57,2.57,0,0,1-.06-.28.43.43,0,0,0-.49-.35l-.1,0c-.29.27,0,.5,0,.59a6.91,6.91,0,0,1-.21.9c-.19.5-.4,1,.11,1.42a.62.62,0,0,0,.25.09c.05,0,.12,0,.18,0l.57.13.34.07c-.06.28-.25.35-.46.4-.91-.23-2-.12-2.39-.74S14,1.81,14,1.81L12.45,3.12s-.18,7.52-.57,9.38c-.31,1.45.33,3.46.29,4.32,0,.25,0,.49,0,.7v2.29h1.51v-.09a26.64,26.64,0,0,0,.16-3.59h0a45.89,45.89,0,0,1,.22-4.91c.26-1.07,3.09.5,4.42-.13.68-.32,1.44-.31,1.71-1.07Zm-3,.68.06-.05a.54.54,0,0,1,.36-.07,2.08,2.08,0,0,1,.41.11l.06,0A2.2,2.2,0,0,1,16.93,10.13Z"/></svg>