<svg id="Layer_1" data-name="Layer 1" xmlns="http://www.w3.org/2000/svg" viewBox="0 0 32 32"><defs><style>.cls-1{fill:#ff0;}</style></defs><path class="cls-1" d="M27,11C27,17,16,32,16,32S5,17,5,11A11,11,0,0,1,27,11Z"/><path d="M14.81,9.93a3.6,3.6,0,0,0-1.52-1.76,1,1,0,0,0-1.5.4V8.8a1,1,0,0,0,.44.89c.34.24.74.55.79.75s.18.55.32,1c.26.72,1,2.92.88,3.46a.71.71,0,0,1-.27.4.92.92,0,0,0-.61,1.11.57.57,0,0,0,0,.14.93.93,0,0,0,1.09.54A2.36,2.36,0,0,0,16,15.49c.37-1-.18-2.73-.87-4.71C15,10.42,14.86,10.11,14.81,9.93Z"/><path d="M22.5,10.28C22.3,9.22,21,8,19.37,6.65c-.29-.25-.54-.46-.67-.59a3.64,3.64,0,0,0-2.21-.75A1,1,0,0,0,15.4,6.42h0l.1.2a1,1,0,0,0,.84.54,2.09,2.09,0,0,1,1,.55c.17.17.42.29.76.58a12.18,12.18,0,0,1,2,2.22.79.79,0,0,1,.08.26v.05a.63.63,0,0,1-.13.41c-.24.36.24.82.56,1.15l.11.09A.93.93,0,0,0,22,12.39,2.35,2.35,0,0,0,22.5,10.28Z"/></svg>