<svg id="Layer_1" data-name="Layer 1" xmlns="http://www.w3.org/2000/svg" viewBox="0 0 32 32"><defs><style>.cls-1{fill:#ff0;}</style></defs><path class="cls-1" d="M27,11C27,17,16,32,16,32S5,17,5,11A11,11,0,0,1,27,11Z"/><path d="M19.6,2.85a2,2,0,0,1-1.09.67l-.57.41c-.16-.06-.29,0-.42.22s-.3.2-.45.3-.16,0-.17.1c-.09.35-.46.39-.66.61s-.16.14-.28.25c-.14-.06-.22,0-.34.18a3.39,3.39,0,0,1-.88,1c-.27.16-.33.46-.61.6s-.3.44-.47.64-.28.58-.63.75c-.18.08-.28.39-.35.61a.58.58,0,0,1-.31.42,1.12,1.12,0,0,0-.34.51c-.17.35-.31.72-.48,1.11l-.14-.1a4,4,0,0,1,.12-.52c.09-.23.19-.45.29-.68s.06-.19.1-.27.14-.5.25-.62.12-.64.47-.77c0,0,.08-.09.09-.15a.72.72,0,0,1,.36-.57s.05-.07.07-.11l.48-.72c0-.06.17-.09.18-.15.07-.39.43-.48.67-.7s.56-.6.87-.87A5.22,5.22,0,0,1,16,4.51l.38-.23.4-.24a3.43,3.43,0,0,1,.94-.57c.26-.07.4-.43.75-.26.07,0,.23-.1.35-.14l.46-.13Z"/><path d="M16.69,2.34l-.56.44s-.11,0-.17.06-.29.15-.43.24l-.29.23c-.13.1-.28.17-.42.27s-.55.39-.8.61a5.79,5.79,0,0,0-.43.55,2.31,2.31,0,0,1-.23.18l-.17.17-.26.27a3.61,3.61,0,0,0-1,1.29c0,.07-.13.11-.18.17-.17.22-.35.44-.51.67a.55.55,0,0,0,0,.26h-.05c0,.11-.09.23-.14.34H11c0-.14,0-.28.08-.41s.14-.49.21-.74l.18-.61a.1.1,0,0,1,.06-.08c.22-.08.24-.27.29-.45a2,2,0,0,1,.19-.3c0-.21.09-.4.38-.54l.23-.23a1.47,1.47,0,0,0,.29-.32c.1-.19.17-.39.44-.4,0,0,.09-.07.13-.11s.19-.38.45-.35c.22-.36.69-.35,1-.67.14-.16.43-.19.65-.29l0,.07c.08-.06.14-.16.23-.18C16.09,2.41,16.4,2.38,16.69,2.34Z"/><path d="M19.41,5.21c-.17.12-.32.26-.5.37s-.41.2-.6.32-.28.24-.43.35-.16.08-.23.13-.37.35-.56.51-.25.12-.33.22-.35.2-.33.44c0,0-.11,0-.15.09-.25.23-.48.48-.72.72a7.15,7.15,0,0,1-.47.6,3.32,3.32,0,0,0-.38.61c-.18.26-.39.51-.58.77l-.33.47-.08-.05c.11-.21.23-.42.32-.64a2.59,2.59,0,0,0,.13-.55.82.82,0,0,1,.37-.66c.09-.06.09-.24.15-.36a1.81,1.81,0,0,1,.19-.29c.13-.16.28-.31.41-.47,0,0,.05,0,0,0,0-.44.57-.4.59-.78.26,0,.29-.28.42-.44s.28-.11.41-.19.3-.22.46-.33,0-.08.06-.08c.53-.09.93-.49,1.43-.65a2.61,2.61,0,0,1,.4,0A1.42,1.42,0,0,1,19.41,5.21Z"/><path d="M21,10.94a2,2,0,0,1-1.09.67l-.57.42c-.16-.07-.28,0-.42.21s-.3.2-.45.3-.16.06-.17.1c-.08.35-.46.39-.66.61s-.15.14-.27.25c-.15-.05-.23,0-.35.18a3.26,3.26,0,0,1-.88,1c-.27.16-.33.46-.61.6s-.3.44-.47.65-.28.58-.63.74c-.18.08-.28.39-.35.62a.56.56,0,0,1-.31.41,1.12,1.12,0,0,0-.34.51c-.17.35-.31.72-.48,1.12-.09-.07-.14-.1-.13-.11a2.82,2.82,0,0,1,.12-.52c.08-.23.19-.45.28-.68s.06-.18.1-.27.14-.5.25-.62.12-.64.47-.76c.05,0,.08-.1.09-.16a.7.7,0,0,1,.36-.56s0-.08.08-.12c.15-.24.31-.48.47-.71.05-.07.17-.1.18-.15.07-.4.43-.49.67-.71s.56-.59.87-.87a7.83,7.83,0,0,1,.67-.45l.38-.23.4-.24a3.43,3.43,0,0,1,.94-.57c.26-.06.4-.43.75-.26.08,0,.23-.1.36-.14l.45-.13Z"/><path d="M18.09,10.43l-.55.44c-.05,0-.12,0-.17.06s-.3.15-.44.24-.18.17-.28.24-.29.16-.42.26a8.25,8.25,0,0,0-.81.62,5.66,5.66,0,0,0-.43.54,1.24,1.24,0,0,1-.22.18,1.53,1.53,0,0,0-.18.18l-.26.26a3.61,3.61,0,0,0-1,1.29c0,.07-.12.11-.18.17-.17.22-.35.44-.51.67,0,.07,0,.18,0,.27l0,0-.15.35h-.06c0-.14,0-.28.08-.41s.14-.49.21-.74l.18-.61a.17.17,0,0,1,.06-.08c.22-.07.24-.27.29-.45a2.66,2.66,0,0,1,.19-.3c0-.21.09-.4.38-.54l.23-.22a2.15,2.15,0,0,0,.29-.32c.1-.2.17-.4.44-.41,0,0,.09-.07.14-.11s.18-.38.44-.35c.22-.36.69-.35,1-.67.14-.16.43-.19.66-.28l0,.06c.08-.06.15-.16.23-.18C17.49,10.5,17.8,10.47,18.09,10.43Z"/><path d="M20.81,13.3a4.62,4.62,0,0,1-.5.37c-.19.12-.41.2-.6.32a3.62,3.62,0,0,0-.42.36c-.07.05-.17.07-.24.13l-.56.5a2.7,2.7,0,0,0-.33.22c-.12.14-.35.2-.33.44,0,0-.11.06-.15.1-.25.22-.48.48-.72.71a7.15,7.15,0,0,1-.47.6,3.32,3.32,0,0,0-.38.61c-.18.27-.39.52-.58.77l-.33.48-.08-.05c.11-.22.23-.43.32-.65a2,2,0,0,0,.13-.55.85.85,0,0,1,.37-.66c.09-.05.1-.24.15-.36a2.9,2.9,0,0,1,.19-.29l.42-.47,0,0c0-.43.56-.39.58-.78.26,0,.29-.28.42-.44s.28-.11.41-.19a3.54,3.54,0,0,0,.46-.33s0-.08.06-.08c.54-.08.93-.49,1.43-.65a2.64,2.64,0,0,1,.4,0A1,1,0,0,1,20.81,13.3Z"/></svg>