<svg id="Layer_1" data-name="Layer 1" xmlns="http://www.w3.org/2000/svg" viewBox="0 0 32 32"><defs><style>.cls-1{fill:#ff0;}</style></defs><path class="cls-1" d="M27,11C27,17,16,32,16,32S5,17,5,11A11,11,0,0,1,27,11Z"/><path d="M25.86,10v0l-.51.39a1.07,1.07,0,0,1-.55.16.86.86,0,0,0-.41.16,1,1,0,0,1-.63.28.21.21,0,0,0-.16.1.78.78,0,0,1-.63.34.37.37,0,0,0-.37.17c-.05.08-.17.11-.27.14s-.26,0-.37.07a1,1,0,0,0-.36.2,1,1,0,0,1-.62.23.89.89,0,0,0-.66.3,1,1,0,0,1-.72.3.61.61,0,0,1-.57-.36,1.48,1.48,0,0,1-.14-.42.64.64,0,0,0-.29-.47.84.84,0,0,1-.44-.66c0-.05,0-.09-.07-.13a1,1,0,0,1-.37-.6c0-.07-.09-.13-.15-.18a.53.53,0,0,1-.23-.5.33.33,0,0,0-.17-.32.65.65,0,0,1-.27-.6.2.2,0,0,0-.11-.24.23.23,0,0,1-.08-.11c-.08-.24-.15-.49-.21-.74s-.06-.3-.09-.46a.83.83,0,0,1,0-.16,1.32,1.32,0,0,1,.56.48c.05.08.13.14.18.21l.26.42a1.1,1.1,0,0,0,.14.21.67.67,0,0,1,.25.37.44.44,0,0,0,.29.38c.17.05.23.23.27.4a.44.44,0,0,0,.19.33.77.77,0,0,1,.24.55.22.22,0,0,0,.15.2,3,3,0,0,1,.39.29l.13-.23c.09-.14.19-.28.27-.42a.28.28,0,0,0,0-.18,1.29,1.29,0,0,1,.31-1,.79.79,0,0,0,.17-.41.57.57,0,0,1,.07-.29,3.71,3.71,0,0,0,.35-.85,2.37,2.37,0,0,0,.27-.7.08.08,0,0,1,0-.05A1,1,0,0,0,21.25,6a.39.39,0,0,1,.07-.16A3.12,3.12,0,0,0,21.76,5a4.1,4.1,0,0,1,.54-.79h.06a2.48,2.48,0,0,1,0,.27,3.07,3.07,0,0,1-.05.53,5,5,0,0,1-.18.5,1.23,1.23,0,0,0-.08.33,1.42,1.42,0,0,1-.27.8.53.53,0,0,0,0,.18c0,.12-.05.26-.1.38a.93.93,0,0,0-.12.41c0,.13-.1.27-.15.4a1.27,1.27,0,0,0-.1.37,1,1,0,0,1-.18.65.19.19,0,0,0,0,.13,1.06,1.06,0,0,1-.23.87.52.52,0,0,0-.05.23c0,.18,0,.37,0,.55a2.66,2.66,0,0,0,0,.28l.3,0,0,0a5,5,0,0,0,.53-.11c.16-.07.3-.19.46-.28a.31.31,0,0,1,.21,0,.49.49,0,0,0,.45-.09.79.79,0,0,1,.56-.14.32.32,0,0,0,.23-.08.6.6,0,0,1,.46-.21A1.29,1.29,0,0,0,24.7,10a.2.2,0,0,1,.11,0l.82,0Z"/><path d="M15.82,10a.68.68,0,0,1,0,.19,1.45,1.45,0,0,1-.62.89.74.74,0,0,0-.26.38,1,1,0,0,1-.36.49.32.32,0,0,0-.12.2.77.77,0,0,1-.35.59.41.41,0,0,0-.25.35c0,.09-.1.18-.17.26a3.47,3.47,0,0,0-.29.25,1,1,0,0,0-.2.34.89.89,0,0,1-.41.5,1,1,0,0,0-.43.62c-.09.32-.44.73-.78.69a1,1,0,0,1-.54-.24.85.85,0,0,1-.16-.17.6.6,0,0,0-.52-.25.79.79,0,0,1-.66-.34.35.35,0,0,0-.16-.09,1,1,0,0,1-.61-.33c0-.06-.18-.07-.27-.09A.47.47,0,0,1,8.25,14,.31.31,0,0,0,8,13.78a.75.75,0,0,1-.61-.43s-.09-.08-.15-.11-.15,0-.2-.08a6.1,6.1,0,0,1-.46-.41c-.15-.17-.28-.35-.43-.52v-.06a1.08,1.08,0,0,1,.8.18.19.19,0,0,0,.1,0,.84.84,0,0,1,.54.26,1.76,1.76,0,0,0,.2.09,1.66,1.66,0,0,1,.4.2c.14.1.25.21.44.17a.45.45,0,0,1,.42.19.74.74,0,0,0,.37.22,1.24,1.24,0,0,1,.43.3c.09.08.15.16.3.14a1.88,1.88,0,0,1,.45.05v-.21c0-.19,0-.38,0-.57a.27.27,0,0,0-.05-.15A1.34,1.34,0,0,1,10.3,12a.88.88,0,0,0,0-.32,1.84,1.84,0,0,1-.12-.61,4.94,4.94,0,0,0-.12-.67,2.09,2.09,0,0,1,0-.25.93.93,0,0,0,0-.24.69.69,0,0,1-.05-.49.39.39,0,0,0,0-.21,1.3,1.3,0,0,1-.06-.78.48.48,0,0,0,0-.29,1.09,1.09,0,0,1-.06-.59c0-.17,0-.35,0-.52a1.46,1.46,0,0,1,0-.2h.05L10,7c.1.2.2.4.28.6a3.4,3.4,0,0,1,.07.46.85.85,0,0,0,.09.31,1.56,1.56,0,0,1,.18.85.84.84,0,0,0,0,.2,2.79,2.79,0,0,1,.1.39.77.77,0,0,0,.09.36.83.83,0,0,1,.09.44.62.62,0,0,0,.1.4.88.88,0,0,1,.17.61.39.39,0,0,0,.06.17,1,1,0,0,1,.22.82.29.29,0,0,0,.09.27,1.77,1.77,0,0,1,.19.33,1.66,1.66,0,0,1,.06.21c.07.19.2.23.32.07a1.46,1.46,0,0,1,.51-.51s0-.07.05-.12a.7.7,0,0,1,.46-.5.39.39,0,0,0,.19-.19.89.89,0,0,1,.5-.49.22.22,0,0,0,.11-.15.7.7,0,0,1,.35-.47,1.12,1.12,0,0,0,.48-.41.34.34,0,0,1,.12-.09l.63-.4Z"/><path d="M12.18,16.4c0,.25,0,.49-.06.74,0,.1-.07.19-.1.29H12c-.16-.24-.31-.48-.46-.73a1.79,1.79,0,0,1-.13-.32.31.31,0,0,1,.22-.42C12.07,15.78,12.23,15.9,12.18,16.4Z"/><path d="M19.53,13.58c-.16.21-.31.44-.47.66a2.08,2.08,0,0,1-.21.2c0-.07-.05-.09-.05-.12a8.68,8.68,0,0,1,0-1c0-.33.2-.44.53-.35S19.79,13.23,19.53,13.58Z"/></svg>