<svg id="Layer_1" data-name="Layer 1" xmlns="http://www.w3.org/2000/svg" viewBox="0 0 32 32"><defs><style>.cls-1{fill:#ff0;}</style></defs><path class="cls-1" d="M27,11C27,17,16,32,16,32S5,17,5,11A11,11,0,0,1,27,11Z"/><path d="M21.6,8.16a8.87,8.87,0,0,1-.3,2.62,2.94,2.94,0,0,1-.38.8,1,1,0,0,1-1.5.19,3.85,3.85,0,0,1-.35-.35L19,11.31a.68.68,0,0,0-1-.16,4.5,4.5,0,0,1-.41.25.94.94,0,0,1-1.38-.48A2.13,2.13,0,0,1,16,9.87a8.26,8.26,0,0,1,.88-3.48A7.8,7.8,0,0,1,18.2,4.54L18.72,4a.59.59,0,0,1,.45-.25c.17,0,.22.07.16.21a9,9,0,0,0-.64,2.83,8.87,8.87,0,0,0-.06.89.79.79,0,0,0,.15.41.31.31,0,0,0,.47,0,.74.74,0,0,0,.25-.36,10.67,10.67,0,0,0,.5-3.5A1.22,1.22,0,0,1,20,4c0-.14.11-.18.21-.09a2.79,2.79,0,0,1,.43.48,4.88,4.88,0,0,1,.83,2.42C21.53,7.34,21.57,7.88,21.6,8.16Z"/><path d="M10.38,14.59a12,12,0,0,1,.33-3,3.77,3.77,0,0,1,.93-1.68,1.1,1.1,0,0,1,.26-.15A1.2,1.2,0,0,1,12,10a10.72,10.72,0,0,0,.45,3.47,1,1,0,0,0,.25.46.34.34,0,0,0,.58-.1.88.88,0,0,0,.09-.38,11.89,11.89,0,0,0-.57-3.35c0-.11-.1-.22-.14-.34s0-.18.13-.19a.53.53,0,0,1,.41.17,9.58,9.58,0,0,1,2.18,3.05,9.1,9.1,0,0,1,.62,3,2.12,2.12,0,0,1-.2,1,1,1,0,0,1-1.42.5,2.46,2.46,0,0,1-.34-.22.7.7,0,0,0-1.08.17,2.18,2.18,0,0,1-.35.4A1,1,0,0,1,11,17.43a2.71,2.71,0,0,1-.48-1.27C10.47,15.54,10.42,14.91,10.38,14.59Z"/></svg>