<svg id="Layer_1" data-name="Layer 1" xmlns="http://www.w3.org/2000/svg" viewBox="0 0 32 32"><defs><style>.cls-1{fill:#ff0;}</style></defs><path class="cls-1" d="M27,11C27,17,16,32,16,32S5,17,5,11A11,11,0,0,1,27,11Z"/><polygon points="18.71 16.28 19.75 16.28 19.19 14.83 18.71 16.28"/><polygon points="17.66 15.22 18.7 15.22 18.14 13.77 17.66 15.22"/><polygon points="16.6 14.17 17.65 14.17 17.09 12.72 16.6 14.17"/><polygon points="15.55 13.12 16.59 13.12 16.03 11.67 15.55 13.12"/><polygon points="14.49 12.06 15.54 12.06 14.98 10.61 14.49 12.06"/><polygon points="13.93 9.56 13.44 11.01 14.49 11.01 13.93 9.56"/><polygon points="12.87 8.51 12.39 9.96 13.44 9.96 12.87 8.51"/><polygon points="11.82 7.45 11.34 8.9 12.38 8.9 11.82 7.45"/><polygon points="10.28 7.85 11.33 7.85 10.77 6.4 10.28 7.85"/><polygon points="9.23 6.8 10.28 6.8 9.71 5.35 9.23 6.8"/><polygon points="12.23 16.28 13.27 16.28 12.79 14.83 12.23 16.28"/><polygon points="13.28 15.22 14.33 15.22 13.84 13.77 13.28 15.22"/><polygon points="14.33 14.17 15.38 14.17 14.9 12.72 14.33 14.17"/><polygon points="17 10.61 16.44 12.06 17.49 12.06 17 10.61"/><polygon points="18.06 9.56 17.49 11.01 18.54 11.01 18.06 9.56"/><polygon points="19.11 8.51 18.55 9.96 19.59 9.96 19.11 8.51"/><polygon points="19.6 8.9 20.65 8.9 20.16 7.45 19.6 8.9"/><polygon points="20.65 7.85 21.7 7.85 21.22 6.4 20.65 7.85"/><polygon points="22.27 5.35 21.71 6.8 22.75 6.8 22.27 5.35"/></svg>