<svg id="Layer_1" data-name="Layer 1" xmlns="http://www.w3.org/2000/svg" viewBox="0 0 32 32"><defs><style>.cls-1{fill:#ff0;}</style></defs><path class="cls-1" d="M27,11C27,17,16,32,16,32S5,17,5,11A11,11,0,0,1,27,11Z"/><path d="M18.88,6.64a10.58,10.58,0,0,0-2.69-.31,11.11,11.11,0,0,0-2.93.31c-.35.09-.43.19-.43.54,0,.63,0,1.25,0,1.88,0,.26.11.36.36.36H19c.25,0,.36-.11.36-.35V7.21C19.32,6.83,19.24,6.73,18.88,6.64ZM13.74,8.79h-.37V8.42h.37Zm0-.73h-.37V7.69h.37Zm0-.73h-.37V7h.37Zm1,1.46h-.37V8.42h.37Zm0-.73h-.37V7.69h.37Zm0-.73h-.37V7h.37Zm1,1.46h-.38V8.42h.38Zm0-.73h-.38V7.69h.38Zm0-.73h-.38V7h.38Zm1,1.46h-.37V8.42h.37Zm0-.73h-.37V7.69h.37Zm0-.73h-.37V7h.37Zm1,1.46h-.38V8.42h.38Zm0-.73h-.38V7.69h.38Zm0-.73h-.38V7h.38Zm1,1.46H18.4V8.42h.37Zm0-.73H18.4V7.69h.37Zm0-.73H18.4V7h.37Z"/><path d="M18.47,17.19h-.56a.62.62,0,0,1-.6-.35,1.16,1.16,0,0,1,0-1.24.64.64,0,0,1,.61-.35h.6a.17.17,0,0,0,.19-.18.16.16,0,0,0-.16-.19,4,4,0,0,0-1.09.06l-.52.14a1.93,1.93,0,0,1-1.49.06h0a4.06,4.06,0,0,0-1.34-.25h-.4c-.14,0-.23.07-.23.18s.09.19.24.19h.56a.64.64,0,0,1,.6.33,1.18,1.18,0,0,1,.08,1.12.7.7,0,0,1-.73.49,3.49,3.49,0,0,0-.56,0,.18.18,0,0,0-.19.18.17.17,0,0,0,.17.18,6.83,6.83,0,0,0,1,0,5.65,5.65,0,0,0,1-.26,1.41,1.41,0,0,1,.93,0,5.08,5.08,0,0,0,1.93.31c.16,0,.24-.06.24-.18S18.63,17.19,18.47,17.19Zm-2.59-.48a.13.13,0,0,1,0,.1l-.63.16a1.69,1.69,0,0,0,0-1.49l.62.17a.11.11,0,0,1,.05.09C15.89,16.06,15.89,16.39,15.88,16.71Zm.43.1a.13.13,0,0,1,0-.09v-1s0-.08.06-.08l.62-.17a1.68,1.68,0,0,0,0,1.5Z"/><path d="M16.05,14.5a2.27,2.27,0,1,0-2.24-2.28A2.26,2.26,0,0,0,16.05,14.5Zm0-4.15a1.89,1.89,0,1,1-1.88,1.88A1.89,1.89,0,0,1,16.07,10.35Z"/><path d="M14.51,16.85a1,1,0,0,0,0-1.25.45.45,0,0,0-.71,0,1,1,0,0,0-.19.6.92.92,0,0,0,.2.6A.45.45,0,0,0,14.51,16.85Z"/><path d="M17.59,15.67a1.06,1.06,0,0,0,0,1.11.46.46,0,0,0,.79,0,1,1,0,0,0,.17-.56,1,1,0,0,0-.16-.55A.46.46,0,0,0,17.59,15.67Z"/><path d="M16.08,13.8a1.58,1.58,0,0,0,1.55-1.5,1.56,1.56,0,1,0-3.12-.05A1.58,1.58,0,0,0,16.08,13.8Zm0-2.32a.75.75,0,0,1,.76.79.76.76,0,0,1-1.52,0A.76.76,0,0,1,16.07,11.48Z"/><path d="M10.71,9.81v5.53a.86.86,0,0,0,.86.86H12v-.34h-.43a.52.52,0,0,1-.52-.52V9.81a.52.52,0,0,1,.52-.52H12V9h-.43A.86.86,0,0,0,10.71,9.81Z"/><path d="M20.41,9h-.27v-2a1,1,0,0,0-.33-.73,1.81,1.81,0,0,0-.69-.35,10.15,10.15,0,0,0-2.06-.31,13.55,13.55,0,0,0-3.18.14V3.31a.23.23,0,0,0-.23-.23h0a.22.22,0,0,0-.22.23V5.76a6.1,6.1,0,0,0-.76.23,1,1,0,0,0-.66.86,2.26,2.26,0,0,0,0,.26v.4h0v9.34h0v.4h0v.18a1.13,1.13,0,0,0,1.13,1.11H19a1.11,1.11,0,0,0,1.1-.9c0-.06,0-.11,0-.17V16.2h.27a.86.86,0,0,0,.86-.86V9.81A.86.86,0,0,0,20.41,9Zm-.64,4.48v3.9a.76.76,0,0,1-.84.84H13.19a.75.75,0,0,1-.81-.81V10.83c0-1.26,0-2.53,0-3.79a.69.69,0,0,1,.46-.71,5.34,5.34,0,0,1,1-.26A13.75,13.75,0,0,1,17.6,6c.46.06.91.15,1.36.24a1.52,1.52,0,0,1,.42.16.7.7,0,0,1,.39.67C19.76,9.16,19.77,11.3,19.77,13.43Zm1.16,1.91a.52.52,0,0,1-.52.52h-.26V9.29h.26a.52.52,0,0,1,.52.52Z"/></svg>