<svg id="Layer_1" data-name="Layer 1" xmlns="http://www.w3.org/2000/svg" viewBox="0 0 32 32"><defs><style>.cls-1{fill:#f89431;}</style></defs><path class="cls-1" d="M27,11C27,17,16,32,16,32S5,17,5,11A11,11,0,0,1,27,11Z"/><path d="M22,19.17l-.11-.06h0l-.68-1.88h.61A.19.19,0,0,0,22,17a.19.19,0,0,0-.19-.2H21L20.35,15h.53a.19.19,0,1,0,0-.38h-.67l-.68-1.87h.66a.2.2,0,0,0,.19-.19.2.2,0,0,0-.19-.2h-.8l-.75-2.05h.64a.2.2,0,0,0,.19-.2.2.2,0,0,0-.19-.19H18.5l-.6-1.65h.47a.2.2,0,0,0,.19-.19.2.2,0,0,0-.19-.2h-.61L17.43,7l0-.13h-.48V6.56H18l1.11,1.56a.33.33,0,0,0,.26.13h.06L20.59,8a.33.33,0,0,0,.24-.2.31.31,0,0,0,0-.31L19.47,5.68h0a7,7,0,0,1-2.15-2.46l0-.47a.54.54,0,0,0-.49-.49l-.86-.07a.55.55,0,0,0-.59.59l.15,3.3L15.82,6v.54h.91v.26h-.29L16,7.65h-.69a.2.2,0,1,0,0,.39h.47l-5.47,9.48h-.18a.14.14,0,0,0,0,.28h.8a.14.14,0,1,0,0-.28h-.18l3.06-5.3,2.66.45-.07,2.1.39,0,.07-2.11,2.27,0,2.25,6.21-.09-.05a.15.15,0,0,0-.19.06.14.14,0,0,0,.06.19l.37.2h0l.34.18h.06a.15.15,0,0,0,.13-.07A.14.14,0,0,0,22,19.17Zm-5.52-6.71L14,12.05l2.54-1.24Zm.06-1.88L14,11.78l2.22-3.84h0l.38-.65ZM17,7.21h.11l1.78,4.9-2-1.49Zm-.11-.83.57-.57.41.57Zm3.75,1.26a.13.13,0,0,1,0,.13.14.14,0,0,1-.11.09l-1.16.21A.15.15,0,0,1,19.26,8l-1.6-2.24,1.71.09Zm-1.44-2-1.65-.09-.21-2A6.85,6.85,0,0,0,19.21,5.67ZM15.5,2.77h0a.34.34,0,0,1,.11-.29.36.36,0,0,1,.26-.11h0l.85.07a.38.38,0,0,1,.34.33l.28,2.77a3.64,3.64,0,0,1-1.82-1.6Zm.14,3.1-.07-1.64a3.79,3.79,0,0,0,1.67,1.39Zm1,.51H16V6l1.22-.2Zm.18,6.09.05-1.6L19,12.43Z"/></svg>