<svg id="Layer_1" data-name="Layer 1" xmlns="http://www.w3.org/2000/svg" viewBox="0 0 32 32"><defs><style>.cls-1{fill:#0071bd;}.cls-2{fill:#fff;}</style></defs><path class="cls-1" d="M27,11C27,17,16,32,16,32S5,17,5,11A11,11,0,0,1,27,11Z"/><path class="cls-2" d="M21.29,14.32a19.29,19.29,0,0,1-2.3.74c-.32.1-.65.17-1,.3s-.46.16-.44.48.08.73.45.88a7.62,7.62,0,0,0,1.07.27,3.29,3.29,0,0,1,.39.17l0,.12H16.64l0-.1a2.21,2.21,0,0,1,.34-.18c.33-.1.39-.2.27-.52a1.27,1.27,0,0,0-.81-.89,3.5,3.5,0,0,1-1.67-1.42c-.34-.48-.69-.95-1-1.42a.64.64,0,0,0-.58-.26c-.61,0-1.22,0-1.83,0-.79,0-1-.23-1-1-.82-.18-1-.69-.59-1.36-.73-.55-.79-.91-.3-1.4A3.12,3.12,0,0,1,9,7.87c-.06-.35.21-.56.52-.7-.31-.82,0-1.29.78-1.27A.82.82,0,0,1,10.55,5a.76.76,0,0,1,.83-.1,4.05,4.05,0,0,1,.76-.53.66.66,0,0,1,.77.33c.74-.28,1.05-.12,1.32.62.35,1,.71,1.94,1.07,2.92l.14,0a2.85,2.85,0,0,1,2.91.31c.24.15.47.32.71.46a1,1,0,0,0,.46.19A.85.85,0,0,0,20.07,9c.07-.06,0-.33-.05-.49-.21-.51-.5-1-.66-1.51a4.61,4.61,0,0,1-.16-1.39c0-.49.41-.72.85-.84a1.06,1.06,0,0,1,1.2.38,1,1,0,0,0,.25.21l.5.37a4.44,4.44,0,0,0-.53.19.5.5,0,0,0-.25.65c.05.13.12.26.17.4.17.4.12.52-.35.72.22.34.42.69.67,1a5.72,5.72,0,0,1,1.19,2.54A2.55,2.55,0,0,1,21.29,14.32Z"/></svg>