<svg id="Layer_1" data-name="Layer 1" xmlns="http://www.w3.org/2000/svg" viewBox="0 0 32 32"><defs><style>.cls-1{fill:#0071bd;}.cls-2{fill:#fff;}</style></defs><path class="cls-1" d="M27,11C27,17,16,32,16,32S5,17,5,11A11,11,0,0,1,27,11Z"/><path class="cls-2" d="M23.72,7.48a.92.92,0,0,1-.28.09A7.85,7.85,0,0,0,21.35,8a3.27,3.27,0,0,0-1.17.77.79.79,0,0,0-.07,1.12,4.85,4.85,0,0,1,.81,1.7,3.8,3.8,0,0,1-1.66,4.14,6.55,6.55,0,0,1-3.42,1,6.71,6.71,0,0,1-3.45-.82,8.23,8.23,0,0,1-1.67-1.26,13.62,13.62,0,0,1-2.45-3.05c0-.07-.08-.13-.11-.2v-.21c.15-.29.27-.34.58-.22a4.5,4.5,0,0,0,2.3.2,13.24,13.24,0,0,0,2.49-.66,7.26,7.26,0,0,1,3.64-.27c.22,0,.28,0,.27-.23s-.05-.52-.08-.78A5.34,5.34,0,0,1,17.53,7a2.78,2.78,0,0,1,2-2,1.75,1.75,0,0,1,2.17,1.21,1,1,0,0,0,.83.66l.92.22a.68.68,0,0,1,.26.12A.17.17,0,0,1,23.72,7.48Z"/></svg>