<svg id="Layer_1" data-name="Layer 1" xmlns="http://www.w3.org/2000/svg" viewBox="0 0 24 24"><defs><style>.cls-1{fill:red;}.cls-2{fill:#fff;}</style></defs><path class="cls-1" d="M20.23,8.23C20.23,12.78,12,24,12,24S3.77,12.78,3.77,8.23a8.23,8.23,0,0,1,16.46,0Z"/><path class="cls-2" d="M14.58,7.54l2.29,1.08L15.53,6.84A6,6,0,0,0,13.23,5L10.82,3.89,12.55,6A6.16,6.16,0,0,0,14.58,7.54Z"/><path class="cls-2" d="M11.38,6.85,9,5.74l1.72,2.07a6.07,6.07,0,0,0,2,1.58L15,10.47,13.68,8.7A5.92,5.92,0,0,0,11.38,6.85Z"/><path class="cls-2" d="M9.53,8.7,7.12,7.6,8.84,9.66a5.94,5.94,0,0,0,2,1.58l2.28,1.09-1.34-1.78A6,6,0,0,0,9.53,8.7Z"/></svg>