<svg id="Layer_1" data-name="Layer 1" xmlns="http://www.w3.org/2000/svg" viewBox="0 0 24 24"><defs><style>.cls-1{fill:red;}.cls-2{fill:#fff;}</style></defs><path class="cls-1" d="M20.23,8.23C20.23,12.78,12,24,12,24S3.77,12.78,3.77,8.23a8.23,8.23,0,0,1,16.46,0Z"/><path class="cls-2" d="M16.54,10.15l-1.79-3.1L13.31,4.56a1.5,1.5,0,0,0-2.63,0L9,7.51,7.45,10.15a1.51,1.51,0,0,0-.17,1.17,1.47,1.47,0,0,0,1.47,1.11h6.47a1.5,1.5,0,0,0,1.32-2.29Zm-4.62-4.5h.14a.39.39,0,0,1,.42.44c0,.44,0,.88-.05,1.32s0,.9,0,1.36a.4.4,0,0,1-.31.39A.38.38,0,0,1,11.65,9a.49.49,0,0,1-.05-.2c0-.89-.06-1.78-.1-2.67A.4.4,0,0,1,11.92,5.65ZM12,11.07a.51.51,0,1,1,.49-.51A.5.5,0,0,1,12,11.07Z"/></svg>