<svg id="Layer_1" data-name="Layer 1" xmlns="http://www.w3.org/2000/svg" viewBox="0 0 24 24"><defs><style>.cls-1{fill:red;}.cls-2{fill:#fff;}</style></defs><path class="cls-1" d="M20.23,8.23C20.23,12.78,12,24,12,24S3.77,12.78,3.77,8.23a8.23,8.23,0,0,1,16.46,0Z"/><path class="cls-2" d="M17,10.84l-1.62-3.9h.34a.38.38,0,0,0,0-.75l-.68,0-.31-.76,1,0a.37.37,0,0,0,.38-.36.36.36,0,0,0-.36-.38l-1.31,0-.31-.75a.37.37,0,1,0-.68.28l.18.45-3.25-.08.16-.37a.39.39,0,0,0-.21-.49.38.38,0,0,0-.48.21l-.26.63-1.34,0a.37.37,0,0,0-.38.36h0a.38.38,0,0,0,.36.38l1.05,0L9,6,8.28,6a.38.38,0,0,0-.38.36h0a.37.37,0,0,0,.36.38h.43L7,10.84a.37.37,0,0,0,.2.49h0a.36.36,0,0,0,.48-.2l1.8-4.34,5.11.13,1.75,4.21a.37.37,0,0,0,.49.2h0A.37.37,0,0,0,17,10.84ZM9.8,6.06l.31-.76L14,5.4l.32.76Z"/></svg>