<svg id="Layer_1" data-name="Layer 1" xmlns="http://www.w3.org/2000/svg" viewBox="0 0 24 24"><defs><style>.cls-1{fill:red;}.cls-2{fill:#fff;}</style></defs><path class="cls-1" d="M20.23,8.23C20.23,12.78,12,24,12,24S3.77,12.78,3.77,8.23a8.23,8.23,0,0,1,16.46,0Z"/><path class="cls-2" d="M16.2,6.12a6.7,6.7,0,0,1-.22,2,2.63,2.63,0,0,1-.29.61.75.75,0,0,1-1.12.14,2.2,2.2,0,0,1-.26-.27.24.24,0,0,1-.06-.08.52.52,0,0,0-.75-.12,2,2,0,0,1-.31.19.71.71,0,0,1-1-.36A1.64,1.64,0,0,1,12,7.4a6.11,6.11,0,0,1,.66-2.61,6.17,6.17,0,0,1,1-1.39L14,3a.49.49,0,0,1,.34-.19c.12,0,.16.06.11.17A6.66,6.66,0,0,0,14,5.08a4.89,4.89,0,0,0,0,.66.69.69,0,0,0,.12.31.23.23,0,0,0,.35,0,.64.64,0,0,0,.19-.27A8,8,0,0,0,15,3.2.74.74,0,0,1,15,3c0-.1.08-.13.15-.06a2.18,2.18,0,0,1,.33.35,3.71,3.71,0,0,1,.62,1.82C16.14,5.51,16.18,5.91,16.2,6.12Z"/><path class="cls-2" d="M7.79,10.94A8.8,8.8,0,0,1,8,8.68a2.84,2.84,0,0,1,.7-1.27,1.18,1.18,0,0,1,.19-.11c0,.08.08.15.07.22a8.22,8.22,0,0,0,.34,2.61.77.77,0,0,0,.19.34.25.25,0,0,0,.43-.08.55.55,0,0,0,.07-.28A8.93,8.93,0,0,0,9.59,7.6c0-.09-.07-.17-.1-.25s0-.14.09-.15a.39.39,0,0,1,.31.13,7.25,7.25,0,0,1,1.64,2.28A6.83,6.83,0,0,1,12,11.84a1.49,1.49,0,0,1-.15.74.72.72,0,0,1-1.06.37,1.4,1.4,0,0,1-.26-.16.51.51,0,0,0-.8.13,1.86,1.86,0,0,1-.27.29.76.76,0,0,1-1.17-.14,2,2,0,0,1-.36-1C7.85,11.65,7.81,11.18,7.79,10.94Z"/></svg>