<svg id="Layer_1" data-name="Layer 1" xmlns="http://www.w3.org/2000/svg" viewBox="0 0 24 24"><defs><style>.cls-1{fill:#fff;}.cls-2{fill-rule:evenodd;}</style></defs><path class="cls-1" d="M20.23,8.23C20.23,12.78,12,24,12,24S3.77,12.78,3.77,8.23a8.23,8.23,0,0,1,16.46,0Z"/><path class="cls-2" d="M18.84,9.77v1.06H6V8.68l.4.68.3-2.08.1-.7,0,.7.07,2.48.28-1.32.37,1.2.19-.79.17.83L7.92,9l.14.69v-.1a4.63,4.63,0,0,1,0-.87c0-.18-.11-.63-.11-.86s0-.33.05-.61a6.17,6.17,0,0,1,.17-1c.1-.16.13-.26.09-.35s-.36-.31-.44-.47a1.78,1.78,0,0,1-.1-.51l-.22-.33c0-.06-.22-.18-.25-.23A.82.82,0,0,1,7,4a1,1,0,0,1,0-.48A1.89,1.89,0,0,0,7.13,4a.64.64,0,0,0,.15.24.88.88,0,0,0,0-.14s0-.11-.07-.2a1.47,1.47,0,0,1,0-.61.71.71,0,0,1,.25-.33s0,0,0,.08a1,1,0,0,0-.12.4,2,2,0,0,0,.06.54l.08-.06a.65.65,0,0,1,.19,0c.06,0,.09-.06.17-.22a1,1,0,0,1,.25-.28A.88.88,0,0,0,8,3.48a2.17,2.17,0,0,0-.13.3,1.41,1.41,0,0,0,.36-.06c.12-.05.54-.29.54-.29s-.41.35-.51.41a5.94,5.94,0,0,1-.6.18.22.22,0,0,0-.14.25,1,1,0,0,0,.32.44A3.64,3.64,0,0,0,8.14,5s.11,0,.11-.06a1.38,1.38,0,0,1,0-.28c0-.09,0-.31,0-.31v.12a2.7,2.7,0,0,0,.06.39A.64.64,0,0,0,8.43,5a.54.54,0,0,1,.11.12.58.58,0,0,1,.21,0c.11,0,.19.06.21,0s0,0,0-.07,0-.07,0-.27a1.61,1.61,0,0,1,0-.41L9,4.72A1.86,1.86,0,0,0,9.1,5a.29.29,0,0,0,.1,0,2.32,2.32,0,0,1,.31-.28.17.17,0,0,0,.08-.2c0-.07-.14-.3-.21-.47a2.46,2.46,0,0,1-.13-.46s0,.08.08.2.3.49.32.58a.15.15,0,0,0,.14.11s.07-.09.09-.12a3.81,3.81,0,0,0,0-.54C9.84,3.55,9.7,3,9.7,3s0,0,.15.31a4.11,4.11,0,0,1,.16.94.14.14,0,0,0,0-.06,1.37,1.37,0,0,0,0-.39A1.79,1.79,0,0,0,10,3.31a.74.74,0,0,1,.19.36,1.14,1.14,0,0,1-.06.74C10,4.58,9.41,5,9.36,5a.41.41,0,0,0-.07.25s.08,0,.15,0a1.34,1.34,0,0,1,.28-.18A.92.92,0,0,1,10.15,5c.06,0,0,.19,0,.25a2.71,2.71,0,0,1-.27.47.52.52,0,0,1-.35.12L9.66,6c.05,0,.27.12.27.28a.26.26,0,0,1-.09.22s-.05.15-.12.15-.13,0-.23,0l-.23.13a.49.49,0,0,1,.06.2,1.61,1.61,0,0,1,0,.31v.06l.1.07s.27,0,.48.11A5.36,5.36,0,0,0,11,7.59a11.11,11.11,0,0,1,1.36,0,6.46,6.46,0,0,1,2.37.64h0a2.81,2.81,0,0,1,.81.87,3.46,3.46,0,0,1,.34-1c-.1.45-.19.81-.24,1.17a2.8,2.8,0,0,1,.13.41,1.66,1.66,0,0,1,0,.22l.07-.12.2-.39.18.76c0-.11.06-.22.08-.33s0-.09,0-.1l0-.08v0a5.29,5.29,0,0,0-.05-.56h.05a1.87,1.87,0,0,0,.07.28l.18-.8.13.51.09-.25v.57l.15.55.19-.67.06.1a1.06,1.06,0,0,1,0-.14s0,0,0,0h0v.24l.13.25a2.87,2.87,0,0,1,.62-1.18c-.11.3-.22.55-.3.79l.33.74a1.34,1.34,0,0,0,.09-.67,2.5,2.5,0,0,1,.09.25c0,.13,0,.26,0,.39v.13l.09-.16a4,4,0,0,0,0-1.68,2.21,2.21,0,0,1,.33.95,2.53,2.53,0,0,0,.07.36h0l0,.11Z"/></svg>