<svg id="Layer_1" data-name="Layer 1" xmlns="http://www.w3.org/2000/svg" viewBox="0 0 24 24"><defs><style>.cls-1{fill:#fff;}</style></defs><path class="cls-1" d="M20.23,8.23C20.23,12.78,12,24,12,24S3.77,12.78,3.77,8.23a8.23,8.23,0,0,1,16.46,0Z"/><path d="M18.56,10a.38.38,0,0,0-.14-.22.2.2,0,0,0-.25,0l-.06.05-1.57-1.4a.18.18,0,0,1-.05-.12.66.66,0,0,0-.27-.48L16,7.64a32.75,32.75,0,0,1-3-3.2,4.12,4.12,0,0,1-.79-1.3A.22.22,0,0,0,12,3a.27.27,0,0,0-.23.19,2.23,2.23,0,0,1-.24.49c-.34.47-.67,1-1,1.39A35.59,35.59,0,0,1,7.68,7.9a.52.52,0,0,0-.13.21.66.66,0,0,1-.29.48A4,4,0,0,0,7,8.86l-1.06,1a.28.28,0,0,0-.33-.08.26.26,0,0,0-.13.29c0,.18,0,.35,0,.52a.24.24,0,0,0,.23.27.26.26,0,0,0,.26-.26A.34.34,0,0,1,6,10.36l1-.94.27-.24a1.13,1.13,0,0,1,0,.14c-.07.35-.14.69-.2,1s0,.34.28.34H16.6c.23,0,.33-.11.29-.34,0-.08,0-.15-.05-.23-.06-.31-.11-.61-.17-.92h0c.42.39.85.77,1.28,1.15a.25.25,0,0,1,.1.21.24.24,0,0,0,.25.25.25.25,0,0,0,.24-.25C18.57,10.36,18.58,10.15,18.56,10Zm-8-.31h-1V7.94h1Zm2,0h-1V7.94h1Zm2,0h-1V7.94h1Z"/></svg>