<svg id="Layer_1" data-name="Layer 1" xmlns="http://www.w3.org/2000/svg" viewBox="0 0 24 24"><defs><style>.cls-1{fill:#fff;}</style></defs><path class="cls-1" d="M20.23,8.23C20.23,12.78,12,24,12,24S3.77,12.78,3.77,8.23a8.23,8.23,0,0,1,16.46,0Z"/><path d="M8.66,11.7H7.36a.36.36,0,0,1-.21-.38V5.44a.37.37,0,0,1,.17-.34c.23-.16.44-.34.67-.5a.32.32,0,0,1,.41,0,.53.53,0,0,1,.27.54Q8.66,8.42,8.66,11.7Z"/><path d="M16.84,5.29V11.5a.47.47,0,0,1-.09.12.36.36,0,0,1-.12.08H15.32c0-2.26,0-4.53,0-6.79a.19.19,0,0,1,.09-.18,1.53,1.53,0,0,0,.22-.16.27.27,0,0,1,.33,0l.77.57S16.8,5.24,16.84,5.29Z"/><rect x="9.24" y="5.85" width="2.47" height="5.1"/><rect x="12.28" y="5.84" width="2.47" height="5.1"/></svg>