<svg id="Layer_1" data-name="Layer 1" xmlns="http://www.w3.org/2000/svg" viewBox="0 0 24 24"><defs><style>.cls-1{fill:#fff;}</style></defs><path class="cls-1" d="M20.23,8.23C20.23,12.78,12,24,12,24S3.77,12.78,3.77,8.23a8.23,8.23,0,0,1,16.46,0Z"/><path d="M17.36,4.91a.46.46,0,0,0,0,.41.38.38,0,0,1-.11.53.56.56,0,0,0-.23.52.34.34,0,0,1-.15.32,1.18,1.18,0,0,0-.43.64c-.15.52-.32,1.05-.5,1.56a2.27,2.27,0,0,1-.27.48c-.17.23-.36.44-.54.67a1.76,1.76,0,0,0-.14.23.25.25,0,0,0,.08.37.78.78,0,0,0,.2.11,3.07,3.07,0,0,0,1.07.27l.69.11a.42.42,0,0,1,.12.08.41.41,0,0,1-.13.1.6.6,0,0,1-.16,0,.64.64,0,0,0,0,.07c.05.17,0,.21-.17.23s-.44,0-.66.07-.3.11-.45.14L14.48,12c-.39,0-.77.06-1.16.07a3.87,3.87,0,0,1-1.57-.35A3.81,3.81,0,0,1,10.6,11a2.83,2.83,0,0,0-.83-.46A7,7,0,0,0,8.22,10a1.94,1.94,0,0,0-.48,0,2.7,2.7,0,0,1-.63-.07,4,4,0,0,0-.5-.07l-.16,0v0l.88-.59a.49.49,0,0,1,.44,0,.46.46,0,0,1,.16.07,3,3,0,0,0,1,.39,9.21,9.21,0,0,0,1.58.18h.26c-.05-.09-.08-.17-.12-.24l-.39-.67a.81.81,0,0,1-.09-.69.81.81,0,0,0,0-.38.83.83,0,0,1,0-.38,9.48,9.48,0,0,1,.82-1.84s.07-.15.15-.1,0,.12,0,.19a1.12,1.12,0,0,0,0,.2s.06-.11.1-.15l.12-.08c0,.05.07.1.07.15s0,.21,0,.33L11.63,6s.09-.08.11-.07a.17.17,0,0,1,.08.12c0,.1,0,.21,0,.34L12,6.34c.07,0,.11,0,.13.06s0,.11,0,.16,0,.08,0,.08.14.18.16.29a.24.24,0,0,0,.14.23.24.24,0,0,1,.08.16.29.29,0,0,0,.12.23,1,1,0,0,1,.19.22c.13-.18.26-.37.41-.54.29-.32.58-.65.88-1s.66-.59,1-.91.7-.83,1-1.25l.5-.61.09-.08,0,0-.15.46h0a3.85,3.85,0,0,1,.27-.3.6.6,0,0,1,.16-.08c0,.06,0,.12,0,.18a2.83,2.83,0,0,0-.14.35l.24-.16a.61.61,0,0,1,.13,0,.59.59,0,0,1,0,.13l-.15.27a2.6,2.6,0,0,1,.28,0c.14,0,.18.08.14.21S17.42,4.77,17.36,4.91Z"/></svg>