<svg id="Layer_1" data-name="Layer 1" xmlns="http://www.w3.org/2000/svg" viewBox="0 0 24 24"><defs><style>.cls-1{fill:#fff;}</style></defs><path class="cls-1" d="M20.23,8.23C20.23,12.78,12,24,12,24S3.77,12.78,3.77,8.23a8.23,8.23,0,0,1,16.46,0Z"/><path d="M14.16,5a8.08,8.08,0,0,0-2-.23A8.62,8.62,0,0,0,9.94,5c-.26.07-.32.14-.32.41v1.4c0,.2.08.27.27.27h4.33c.19,0,.27-.08.27-.26V5.4C14.49,5.12,14.43,5.05,14.16,5ZM10.31,6.59H10V6.31h.28Zm0-.54H10V5.76h.28Zm0-.55H10V5.22h.28Zm.75,1.09h-.28V6.31h.28Zm0-.54h-.28V5.76h.28Zm0-.55h-.28V5.22h.28Zm.76,1.09h-.28V6.31h.28Zm0-.54h-.28V5.76h.28Zm0-.55h-.28V5.22h.28Zm.75,1.09h-.28V6.31h.28Zm0-.54h-.28V5.76h.28Zm0-.55h-.28V5.22h.28Zm.76,1.09h-.28V6.31h.28Zm0-.54h-.28V5.76h.28Zm0-.55h-.28V5.22h.28Zm.75,1.09H13.8V6.31h.28Zm0-.54H13.8V5.76h.28Zm0-.55H13.8V5.22h.28Z"/><path d="M13.85,12.9h-.41a.48.48,0,0,1-.46-.26.93.93,0,0,1,0-.94.5.5,0,0,1,.46-.26h.45c.09,0,.14,0,.14-.14a.12.12,0,0,0-.12-.14,2.74,2.74,0,0,0-.81,0l-.39.11a1.52,1.52,0,0,1-1.13,0l0,0a3.3,3.3,0,0,0-1-.18h-.31c-.1,0-.17.05-.17.13s.07.15.18.15h.43a.49.49,0,0,1,.44.25.87.87,0,0,1,.06.84.52.52,0,0,1-.55.37h-.41a.12.12,0,0,0-.14.13.12.12,0,0,0,.12.14,4.83,4.83,0,0,0,.76,0,5.2,5.2,0,0,0,.75-.2,1.09,1.09,0,0,1,.69,0,3.8,3.8,0,0,0,1.46.24c.11,0,.17,0,.17-.14S14,12.9,13.85,12.9Zm-1.94-.36s0,.06,0,.07l-.47.12a1.29,1.29,0,0,0,0-1.12l.47.13s0,0,0,.06Zm.32.07a.15.15,0,0,1,0-.07c0-.25,0-.49,0-.74a.1.1,0,0,1,0-.07l.46-.12a1.29,1.29,0,0,0,0,1.12Z"/><path d="M12,10.87a1.7,1.7,0,1,0-1.68-1.7A1.68,1.68,0,0,0,12,10.87Zm0-3.11a1.42,1.42,0,1,1-1.41,1.41A1.42,1.42,0,0,1,12.05,7.76Z"/><path d="M10.88,12.63a.77.77,0,0,0,0-.93.35.35,0,0,0-.54,0,.7.7,0,0,0-.14.44.72.72,0,0,0,.15.45A.33.33,0,0,0,10.88,12.63Z"/><path d="M13.19,11.76a.78.78,0,0,0,0,.83.35.35,0,0,0,.6,0,.69.69,0,0,0,.12-.42.66.66,0,0,0-.12-.41A.35.35,0,0,0,13.19,11.76Z"/><path d="M12.06,10.35a1.19,1.19,0,0,0,1.16-1.12,1.17,1.17,0,1,0-2.34,0A1.18,1.18,0,0,0,12.06,10.35Zm0-1.74a.57.57,0,0,1,0,1.14.59.59,0,0,1-.58-.57A.58.58,0,0,1,12.05,8.61Z"/><path d="M8,7.36V11.5a.65.65,0,0,0,.65.65H9v-.26H8.68a.38.38,0,0,1-.39-.39V7.36A.38.38,0,0,1,8.68,7H9V6.71H8.68A.65.65,0,0,0,8,7.36Z"/><path d="M15.31,6.71H15.1V5.19a.72.72,0,0,0-.25-.54,1.18,1.18,0,0,0-.51-.26,8,8,0,0,0-1.54-.24,10.06,10.06,0,0,0-2.39.11V2.48a.18.18,0,0,0-.17-.17h0a.18.18,0,0,0-.17.17V4.32a4.17,4.17,0,0,0-.57.18A.73.73,0,0,0,9,5.14a1.21,1.21,0,0,0,0,.19v.3H9v7H9v.29H9v.14a.84.84,0,0,0,.85.83h4.42a.82.82,0,0,0,.82-.67.53.53,0,0,0,0-.13v-.95h.21A.65.65,0,0,0,16,11.5V7.36A.65.65,0,0,0,15.31,6.71Zm-.49,3.37V13a.56.56,0,0,1-.62.62H9.89a.55.55,0,0,1-.6-.6V5.28a.5.5,0,0,1,.34-.53,3.58,3.58,0,0,1,.73-.2,10.39,10.39,0,0,1,2.84-.08c.34,0,.68.11,1,.18a1.24,1.24,0,0,1,.32.12.54.54,0,0,1,.29.5C14.82,6.87,14.82,8.47,14.82,10.08Zm.88,1.42a.39.39,0,0,1-.39.39h-.19V7h.19a.39.39,0,0,1,.39.39Z"/></svg>