<svg id="Layer_1" data-name="Layer 1" xmlns="http://www.w3.org/2000/svg" viewBox="0 0 24 24"><defs><style>.cls-1{fill:#fff;}</style></defs><path class="cls-1" d="M20.23,8.23C20.23,12.78,12,24,12,24S3.77,12.78,3.77,8.23a8.23,8.23,0,0,1,16.46,0Z"/><path d="M17.79,5.61a.39.39,0,0,1-.21.06A6.46,6.46,0,0,0,16,6a2.22,2.22,0,0,0-.87.58.59.59,0,0,0-.06.83,3.68,3.68,0,0,1,.61,1.28,2.86,2.86,0,0,1-1.24,3.11,5,5,0,0,1-2.57.74,5,5,0,0,1-2.59-.62A6,6,0,0,1,8,11,10.46,10.46,0,0,1,6.2,8.69a.64.64,0,0,0-.08-.14V8.39c.11-.22.2-.26.43-.17a3.41,3.41,0,0,0,1.73.15,9.21,9.21,0,0,0,1.87-.5,5.61,5.61,0,0,1,2.73-.2c.16,0,.21,0,.2-.17s0-.39-.06-.58a4.07,4.07,0,0,1,.13-1.7,2.09,2.09,0,0,1,1.51-1.5,1.31,1.31,0,0,1,1.63.91.74.74,0,0,0,.62.49l.69.16a.54.54,0,0,1,.2.1C17.9,5.45,17.89,5.54,17.79,5.61Z"/></svg>