<svg id="Layer_1" data-name="Layer 1" xmlns="http://www.w3.org/2000/svg" viewBox="0 0 24 24"><defs><style>.cls-1{fill:#f89431;}</style></defs><path class="cls-1" d="M20.23,8.23C20.23,12.78,12,24,12,24S3.77,12.78,3.77,8.23a8.23,8.23,0,0,1,16.46,0Z"/><path d="M6.57,12.15,6.75,12a8.31,8.31,0,0,0,.69-.52c.17-.14.42-.3.45-.49a5.58,5.58,0,0,0,0-1.08c0-.68-.06-1.37-.08-2V7.78a3.13,3.13,0,0,1,.8-1.95h0l.11-.12h0c0-.06.07-.11.09-.09,0,.33-.13,1-.17,1.33A4.81,4.81,0,0,0,9,9.62c.17.36.38.38.69.21a1.93,1.93,0,0,0,1.14-1.72c0-.13,0-1.22.08-1.34v0a4.62,4.62,0,0,1,.39.92,2.32,2.32,0,0,1-.47,2.21,3.58,3.58,0,0,0,2.89-1.56.66.66,0,0,0,0-.55c-.3-.47-.65-.92-1-1.36a6.49,6.49,0,0,1-.6-.67c.6-.06,1.43.68,2,1.24A6,6,0,0,0,13,4.14h0a4,4,0,0,1,2,4,2.47,2.47,0,0,0,1.66-2.26c0-.3,0-.62,0-.92a6.16,6.16,0,0,1-.07-1,5.16,5.16,0,0,1,.58.83,7.1,7.1,0,0,1,.31.92,4.36,4.36,0,0,1-2.12,3.77,10.38,10.38,0,0,1-1.3.62c-.93.37-1.89.67-2.82,1a5.54,5.54,0,0,0-1.2.64.18.18,0,0,0-.07.05l-.1.07a2,2,0,0,0-.2.16l0,0H6.54Z"/></svg>