<svg id="Layer_1" data-name="Layer 1" xmlns="http://www.w3.org/2000/svg" viewBox="0 0 24 24"><defs><style>.cls-1{fill:#f89431;}</style></defs><path class="cls-1" d="M20.23,8.23C20.23,12.78,12,24,12,24S3.77,12.78,3.77,8.23a8.23,8.23,0,0,1,16.46,0Z"/><path d="M15.87,8.94a1.2,1.2,0,1,0,1.2,1.2A1.2,1.2,0,0,0,15.87,8.94Zm0,1.66a.46.46,0,1,1,.46-.45A.45.45,0,0,1,15.87,10.6Z"/><path d="M7.87,8.94a1.2,1.2,0,1,0,1.2,1.2A1.2,1.2,0,0,0,7.87,8.94Zm0,1.66a.46.46,0,1,1,.46-.46A.46.46,0,0,1,7.87,10.6Z"/><path d="M18.24,9a1.21,1.21,0,0,0,0-.19l-.09-1.21a.37.37,0,0,0,0-.11h0a.73.73,0,0,0-.78-.62H15.93a.17.17,0,0,1-.17-.09c-.36-.48-.73-1-1.09-1.45a1.17,1.17,0,0,0-1-.5H12.33a1.11,1.11,0,0,0-1.17,1.17v.86H6.46A1,1,0,0,0,6.07,7a.76.76,0,0,0-.33.48V9.41A.47.47,0,0,0,6,9.66c.13,0,.16,0,.2-.1a1.75,1.75,0,0,1,2-1.14A1.71,1.71,0,0,1,9.53,9.59s.05.08.07.08h4.48c.09,0,.11,0,.13-.11a1.76,1.76,0,0,1,2.91-.66,1.81,1.81,0,0,1,.44.76.57.57,0,0,0,.66-.46.78.78,0,0,0,0-.16h0ZM11.9,6.9c0-.32,0-.64,0-1a.35.35,0,0,1,.36-.33h1.48a.42.42,0,0,1,.3.15l.82,1.1,0,0Z"/></svg>