<svg id="Layer_1" data-name="Layer 1" xmlns="http://www.w3.org/2000/svg" viewBox="0 0 24 24"><defs><style>.cls-1{fill:#f89431;}</style></defs><path class="cls-1" d="M20.23,8.23C20.23,12.78,12,24,12,24S3.77,12.78,3.77,8.23a8.23,8.23,0,0,1,16.46,0Z"/><path d="M15.6,11H13.74L15,10.19a.23.23,0,0,0,.1-.28.25.25,0,0,0-.24-.18H13.35L13.22,9H15.6a.16.16,0,1,0,0-.31H13.17L13,7.4a.25.25,0,0,0-.29-.21.24.24,0,0,0-.21.29l.2,1.17h-1.2c0-1.14-.09-2.39-.13-3a.65.65,0,0,1,.07-.37c.27-.54.62-1.14.8-1.45l.11-.19L11.39,3l-.11.22s-.17.32-.31.57V3.74a8.86,8.86,0,0,1-.07-.91l0-.26H9.71L9.77,4l-.51-1-.14-.28-.89.89.1.14s.08.18.13.27a1.07,1.07,0,0,0,.1.21c.42.7.8,1.41,1.16,2.08a.75.75,0,0,1,.06.31c0,.71-.1,2.4-.15,4s-.1,2.16-.14,2.83l0,.23h2.22l0-.23c0-.64-.08-.93-.13-2.06H15.6a.16.16,0,0,0,.16-.16A.17.17,0,0,0,15.6,11Zm-2.74,0H11.53L11.46,9H12.7l.18,1a.27.27,0,0,0,.26.22H14l-1.1.74Z"/></svg>