<svg id="Layer_1" data-name="Layer 1" xmlns="http://www.w3.org/2000/svg" viewBox="0 0 24 24"><defs><style>.cls-1{fill:#f89431;}</style></defs><path class="cls-1" d="M20.23,8.23C20.23,12.78,12,24,12,24S3.77,12.78,3.77,8.23a8.23,8.23,0,0,1,16.46,0Z"/><path d="M14.7,2.14a1.48,1.48,0,0,1-.82.5L13.45,3c-.12-.05-.21,0-.31.16a1.45,1.45,0,0,1-.34.23s-.12,0-.12.07c-.07.27-.35.29-.5.46a2.2,2.2,0,0,1-.21.19c-.1,0-.17,0-.25.13a2.42,2.42,0,0,1-.66.72c-.21.12-.25.35-.47.45s-.22.33-.34.49-.22.43-.48.55-.21.3-.26.47a.42.42,0,0,1-.23.31c-.12.06-.19.24-.26.38s-.23.54-.36.84l-.1-.09c0-.13,0-.26.09-.39s.14-.33.21-.5.05-.14.08-.2.1-.38.19-.47.08-.48.35-.57a.17.17,0,0,0,.06-.12.5.5,0,0,1,.28-.42.73.73,0,0,0,0-.09L10.23,5s.13-.07.14-.11c.05-.29.32-.36.5-.53s.42-.44.65-.65a4.39,4.39,0,0,1,.5-.34l.29-.17.3-.18a2.6,2.6,0,0,1,.7-.43c.19-.05.3-.32.56-.2.06,0,.18-.07.27-.1l.34-.1Z"/><path d="M12.52,1.75l-.42.33s-.09,0-.13,0a3.3,3.3,0,0,0-.32.18c-.08,0-.14.12-.22.18l-.31.19a7.05,7.05,0,0,0-.61.47,3.43,3.43,0,0,0-.32.41,1.26,1.26,0,0,1-.17.13l-.13.13A1.8,1.8,0,0,1,9.7,4,2.57,2.57,0,0,0,9,5s-.1.08-.14.12-.26.33-.38.51,0,.13,0,.2l0,0c0,.09-.07.18-.11.26h0c0-.1,0-.21,0-.31s.11-.37.16-.55.09-.31.14-.46,0-.06,0-.06.18-.2.22-.34A1.8,1.8,0,0,1,9,4.12c0-.16.07-.3.29-.41l.17-.17a1.26,1.26,0,0,0,.22-.24c.07-.14.12-.29.32-.3,0,0,.08,0,.11-.09s.14-.28.33-.25c.17-.27.52-.27.72-.51s.32-.14.49-.21l0,.05c.06-.05.11-.13.17-.14Z"/><path d="M14.56,3.9l-.38.29c-.14.09-.31.14-.45.24a4,4,0,0,0-.32.26c-.05,0-.12.06-.17.1s-.28.25-.42.37-.19.1-.25.17-.26.15-.25.33c0,0-.08,0-.11.07-.19.17-.36.36-.54.54s-.2.31-.35.45-.18.31-.29.46-.29.38-.43.58-.17.23-.25.35l-.06,0c.08-.16.17-.32.24-.48a1.89,1.89,0,0,0,.1-.41.62.62,0,0,1,.28-.5c.06,0,.07-.18.11-.27l.14-.22.31-.35,0,0c0-.33.42-.3.44-.59.19,0,.22-.21.32-.33s.2-.08.3-.14a4.15,4.15,0,0,0,.34-.24s0-.06,0-.07c.4-.06.7-.36,1.07-.48a1.51,1.51,0,0,1,.3,0A.84.84,0,0,1,14.56,3.9Z"/><path d="M15.75,8.21a1.56,1.56,0,0,1-.81.5L14.5,9c-.11,0-.21,0-.31.16a1.17,1.17,0,0,1-.34.22s-.11,0-.12.08c-.07.27-.35.29-.5.46s-.12.1-.21.19-.17,0-.25.13a2.55,2.55,0,0,1-.66.72c-.21.12-.25.35-.46.45s-.22.33-.35.48-.22.44-.48.56-.21.3-.26.46a.42.42,0,0,1-.23.32c-.12.06-.19.24-.26.38s-.23.54-.36.83l-.1-.08c0-.13.05-.26.09-.39a5.44,5.44,0,0,1,.22-.5,1.18,1.18,0,0,1,.07-.2c.09-.16.11-.38.19-.47s.09-.48.35-.58c0,0,.06-.07.07-.11a.52.52,0,0,1,.27-.43s0,0,.05-.08l.36-.54c0-.05.13-.07.14-.11.05-.3.32-.36.5-.53s.42-.45.65-.65a3.77,3.77,0,0,1,.51-.34,2.61,2.61,0,0,1,.28-.17l.3-.18a2.6,2.6,0,0,1,.7-.43c.2-.05.31-.32.56-.2.06,0,.18-.07.27-.1l.35-.1Z"/><path d="M13.57,7.82l-.42.33s-.09,0-.13,0a3.3,3.3,0,0,0-.32.18c-.08,0-.14.12-.22.17l-.31.2a5.59,5.59,0,0,0-.6.46,3.39,3.39,0,0,0-.33.42,1.26,1.26,0,0,1-.17.13L11,9.89l-.2.2a2.62,2.62,0,0,0-.72,1c0,.06-.1.09-.14.13s-.26.33-.38.5a.71.71,0,0,0,0,.2h0c0,.09-.07.18-.11.26h0c0-.11,0-.21.05-.31s.11-.37.16-.55.09-.31.14-.46,0-.06,0-.06c.17-.06.18-.2.22-.34a1.8,1.8,0,0,1,.14-.22c0-.16.07-.3.29-.41l.17-.17a1.65,1.65,0,0,0,.22-.24c.07-.14.12-.29.33-.3,0,0,.07-.05.1-.09s.14-.28.33-.25c.17-.27.52-.27.72-.51s.33-.14.49-.21l0,.05c.06-.05.11-.13.18-.14Z"/><path d="M15.61,10c-.13.1-.24.2-.38.29s-.31.14-.45.23-.21.18-.32.27-.12.05-.17.1l-.42.37c-.08.07-.19.1-.25.17s-.26.15-.25.33c0,0-.08,0-.11.07-.19.17-.36.36-.54.54s-.2.31-.35.45-.18.31-.29.46-.29.38-.43.58-.17.23-.25.35l-.06,0c.08-.16.17-.32.24-.48a1.89,1.89,0,0,0,.1-.41.61.61,0,0,1,.28-.5c.07,0,.07-.18.11-.27a1.64,1.64,0,0,1,.14-.22l.31-.35,0,0c0-.33.42-.3.44-.59.19,0,.22-.21.32-.33s.2-.08.3-.14a3.79,3.79,0,0,0,.35-.25s0-.05,0-.06c.4-.06.7-.36,1.08-.48a2.83,2.83,0,0,1,.29,0A1.69,1.69,0,0,1,15.61,10Z"/></svg>